<?xml version="1.0" standalone="no"?>
<!DOCTYPE svg PUBLIC "-//W3C//DTD SVG 1.1//EN" "http://www.w3.org/Graphics/SVG/1.1/DTD/svg11.dtd" >
<!--
2013-9-30: Created.
-->
<svg>
<metadata>
Created by iconfont
</metadata>
<defs>

<font id="iconfont" horiz-adv-x="1024" >
  <font-face
    font-family="iconfont"
    font-weight="500"
    font-stretch="normal"
    units-per-em="1024"
    ascent="896"
    descent="-128"
  />
    <missing-glyph />
    
    <glyph glyph-name="iconfontscan" unicode="&#58880;" d="M928 352 96 352c-17.664 0-32 14.336-32 32s14.336 32 32 32l832 0c17.696 0 32-14.336 32-32S945.696 352 928 352zM832-32l-192 0c-17.696 0-32 14.304-32 32s14.304 32 32 32l192 0c17.664 0 32 14.336 32 32l0 160c0 17.696 14.304 32 32 32s32-14.304 32-32l0-160C928 11.072 884.928-32 832-32zM352-32 192-32c-52.928 0-96 43.072-96 96l0 160c0 17.696 14.336 32 32 32s32-14.304 32-32l0-160c0-17.664 14.368-32 32-32l160 0c17.664 0 32-14.304 32-32S369.664-32 352-32zM128 512c-17.664 0-32 14.336-32 32L96 704c0 52.928 43.072 96 96 96l160 0c17.664 0 32-14.336 32-32s-14.336-32-32-32L192 736C174.368 736 160 721.632 160 704l0-160C160 526.336 145.664 512 128 512zM896 512c-17.696 0-32 14.336-32 32L864 704c0 17.632-14.336 32-32 32l-192 0c-17.696 0-32 14.336-32 32s14.304 32 32 32l192 0c52.928 0 96-43.072 96-96l0-160C928 526.336 913.696 512 896 512z"  horiz-adv-x="1024" />

    
    <glyph glyph-name="level" unicode="&#59017;" d="M896 236.8 896 236.8c-6.4 0-19.2 25.6-32 38.4-19.2 32-38.4 76.8-83.2 76.8l0 0c-44.8 0-64-38.4-83.2-76.8 0-12.8-12.8-32-19.2-38.4C672 256 659.2 339.2 652.8 384 633.6 505.6 620.8 588.8 563.2 588.8l0 0c-51.2 0-64-83.2-83.2-204.8-6.4-44.8-19.2-121.6-32-153.6-12.8 12.8-19.2 32-25.6 38.4C409.6 307.2 390.4 352 345.6 352l0 0c-44.8 0-64-38.4-83.2-76.8C256 256 243.2 236.8 236.8 236.8c-12.8 0-25.6 25.6-32 38.4C192 307.2 172.8 352 128 352l0 0c-19.2 0-32-12.8-32-32 0-19.2 12.8-32 32-32l0 0c6.4 0 19.2-25.6 32-38.4 19.2-32 38.4-76.8 83.2-76.8l0 0c44.8 0 64 38.4 83.2 76.8 6.4 19.2 19.2 38.4 32 38.4C358.4 294.4 371.2 268.8 384 256c19.2-32 38.4-76.8 83.2-76.8l0 0c51.2 0 64 83.2 83.2 204.8C556.8 422.4 563.2 480 569.6 512c12.8-38.4 19.2-96 25.6-134.4 19.2-121.6 32-204.8 83.2-204.8l0 0c44.8 0 64 38.4 83.2 76.8 6.4 19.2 19.2 38.4 32 38.4 12.8 0 19.2-25.6 32-38.4 19.2-32 38.4-76.8 83.2-76.8l0 0c12.8 0 25.6 12.8 25.6 32C928 224 915.2 236.8 896 236.8z"  horiz-adv-x="1024" />

    
    <glyph glyph-name="barcode" unicode="&#59086;" d="M511.999488 651.979334l44.621267 0 0-535.9996-44.621267 0L511.999488 651.979334zM377.956609 115.980757l89.419566 0L467.376175 651.979334l-89.419566 0L377.956609 115.980757zM243.998665 115.980757l44.623313 0L288.621978 651.979334l-44.623313 0L243.998665 115.980757zM601.289094 115.980757l44.665269 0L645.954363 651.979334l-44.665269 0L601.289094 115.980757zM735.375975 115.980757l44.621267 0L779.997242 651.979334l-44.621267 0L735.375975 115.980757zM958.70846 651.979334l0-535.9996c0-98.713232-80.08599-178.667216-178.711218-178.667216L243.998665-62.687482c-98.711186 0-178.709171 79.953983-178.709171 178.667216L65.289494 651.979334c0 98.623181 79.997985 178.709171 178.709171 178.709171l535.998577 0C878.62247 830.688505 958.70846 750.602515 958.70846 651.979334zM869.286848 607.356021c0 73.979922-59.932997 133.912919-133.910872 133.912919L288.623002 741.26894c-73.979922 0-134.000923-59.932997-134.000923-133.912919l0-446.709995c0-73.979922 60.021002-134.042879 134.000923-134.042879l446.752973 0c73.977875 0 133.910872 60.062957 133.910872 134.042879L869.286848 607.356021z"  horiz-adv-x="1024" />

    
    <glyph glyph-name="earth2" unicode="&#59103;" d="M512-128C229.248-128 0 101.248 0 384 0 666.752 229.248 896 512 896c282.752 0 512-229.248 512-512C1024 101.248 794.752-128 512-128zM926.976 426.912c0.832 0.416 1.28 1.12 1.6 2.24 0.672-3.552 2.304-6.688 4.928-8.992 0.064-0.32-0.096-0.256 0.064-0.704 0.256 0 0.448 0.192 0.672 0.192C936.928 417.472 940.256 416 944 416c5.76 0 10.56 3.2 13.376 7.712 0.192-0.224 0.512-0.512 0.672-0.768-0.032 0.512-0.096 1.024-0.16 1.536C959.136 426.752 960 429.248 960 432c0 8.832-7.2 16-16 16-5.632 0-10.304-3.072-13.184-7.424-0.128 0.096 0 0.48-0.352 0.352 0.416 1.216-0.704 4.32-2.464 7.648L928 432C928 430.176 927.488 428.544 926.976 426.912zM191.744 431.712c0 4.832-11.008 13.056-13.856 13.056 0 0.864-4.48 10.72-6.176 10.72 0 3.328-11.68 18.272-13.536 11.744-1.216-4.224 8.928-9.92 8.928-14.816 1.888 0 9.824-15.04 11.392-17.664 17.344-29.312-12.96-9.28-12.96 3.136-3.872 1.92-9.984 16.672-9.984 20.704-2.272 1.824-8.992 16.064-8.448 16.064 0 9.344-5.152 13.824-15.392 13.824-0.48 0.928-9.088 13.024-9.248 13.024 0 3.84-6.912 15.744-10.752 17.632 0 7.968-4.096 17.792-2.272 26.048 0 8.672-0.448 18.496-3.392 27.392C79.328 515.2 64 451.456 64 384c0-193.312 122.688-357.568 294.272-420.384 0.192 15.872 1.376 34.88 4.992 34.88 0 2.368 2.016 12.288 3.84 12.288 0 6.08 0.736 13.408 0 20.704-2.272 4.576 3.008 10.432 4.608 17.632 8.864 4.448 2.592 49.056 9.28 49.056 0 22.304 4.992 35.296 1.504 55.968 1.696 0-10.08 12.512-9.984 12.288-11.296 0-19.2 18.112-19.2 26.048-1.088 3.488-3.872 8.704-3.872 13.024 2.592 0-16.16 27.392-16.16 26.848-9.92 5.504 0.544 13.184 1.536 22.208-8.608 2.848 0.096 26.08 3.84 26.08 0.384 2.944 1.92 4.96 4.64 6.112 1.92-7.648 10.848 3.808 3.84 3.808 0 5.056-0.576 15.872 0 18.4 0 7.808-6.912 23.104-12.288 6.912-5.76 2.848-20.288 2.336-21.536 11.488 0.896 4.512-8.288 13.728-11.52 15.328 3.008 7.872-15.584 18.4-22.304 18.4 0 1.696-3.552 0.928-4.608 3.072-6.848 0-8.416 9.216-16.16 9.216-8.928 0-17.92 6.112-26.144 6.112-2.752 5.472-15.52 3.328-18.464 9.216-6.688 0-9.312 12.672-9.504 17.344C204.32 411.808 199.744 431.712 191.744 431.712zM839.936 688.512C839.872 688.32 840 688.448 839.68 687.808c0.48 0 1.056-0.544 1.6-0.768C840.8 687.52 840.384 688 839.936 688.512zM849.568 677.92c1.12-2.176 1.952-4.192 1.696-5.44 1.12-0.032 1.664 0.576 2.56 0.8C852.448 674.848 850.944 676.32 849.568 677.92zM877.376 532.128c0.512 13.824-11.52 11.52-15.328 19.2-3.968 0-5.408 3.072-10.784 3.072-3.488 1.184-6.24 0.352-8.256-2.496-8.224-3.136-3.264 4-9.44 4 0.288 7.904-2.848 10.08-11.552 9.216-4.992-11.264-12.672-18.016-11.52-30.688 3.68-0.832 3.04-1.664 2.304-5.344 4.896-0.256 34.592 1.536 34.592 4.608 1.024 0 6.176-10.592 6.176-1.536 4.128 0 6.304-9.696 16.16-6.88C869.728 523.296 886.176 532.128 877.376 532.128zM878.944 368.832c0.576 2.816-1.408 4.064-3.072 6.912 4.384 0-13.856 33.824-13.856 39.104-2.784 1.376-6.336 11.04-6.976 14.56-3.744 2.496-7.616 10.688-9.216 15.328-3.808 2.528-13.088 13.856-14.592 19.168 5.504-0.608 13.824-1.728 13.824 5.376-3.712 0-4.256 4.576-0.736 4.576-1.152 4.704 2.496 8.096 3.296 11.776 0.96 4.448 2.848 11.296 2.848 16.608-5.28 0-6.56-0.896-10.752-2.304 0-3.104-9.376 0.768-10.752 0.768-2.016 4.032-16.64-5.248-20.736 3.072-6.624 5.984-4.832 10.592-6.976 19.04-1.088 4.288-6.944 4.544-10.496 5.248-10.016 1.952-2.784-11.936-3.328-15.104 6.144 0-3.872-7.616-3.872-11.488-10.368 2.24-6.912 13.792-13.024 16.864-1.824 3.072-0.384 5.376-4.64 5.376 0 4.096 2.176 11.52-2.304 13.024 0 1.984-8.704 2.784-9.984 5.376-5.504 0-18.304 20.8-22.24 13.792-2.464-4.48 2.08-5.568 3.008-9.216 7.968 1.568 7.2-13.12 16.928-11.488 0-2.048 0.256-4.128 0.736-6.144 7.2 1.696 6.368-5.344 9.984-5.344-2.624-3.488-10.944 5.568-8.672-2.048 1.312-4.416 0.576-8.192-5.152-12.512 0 4.768-0.384 17.632-5.376 17.632-3.392 6.784-13.472 5.152-17.728 11.488-3.456 0-4.8 10.752-10.752 11.488-1.12-1.568-5.312-3.072-6.944-3.072-3.232-6.496-21.504-0.672-21.504-1.536-0.288-0.064-10.24-24.384-10.816-27.584-1.12-6.88-6.656-7.008-8.32-13.536-0.832-3.264-20.896-1.728-20.896-4.128-8.672 2.88-16.16 8.96-16.16 18.4-0.704 0 1.632 24.096 3.104 27.616 1.76-0.48 2.112-1.088 3.104-3.072 5.312 1.984 17.696-1.312 17.696 4.608 5.152-0.128 6.688-2.176 4.608-6.144 4.8-0.896 13.088-2.112 13.088 4.608-2.816 0-3.104 0.256-3.104 3.072 9.216 9.568-6.912 18.208-6.912 22.976-3.264 1.088-9.92 8.16-5.184 5.504 4-2.208 18.624-6.784 12.864 2.944 0.384 0.128 0.64 0.384 0.736 0.736 1.632-1.152 8.512-8.224 8.512-1.536 1.888 0 9.184 4.608 3.072 4.608 0.576 3.456 0.448 6.336 0.736 8.448 9.76-5.248 4.32 3.584 9.248 6.88 0-6.368 5.248 3.072 8.448 3.072 3.808 5.664 12.512 1.28 14.624 7.68-4.704 1.536-3.84 13.312-3.84 17.6 5.664-0.928 11.968 7.648 12.832 1.76 0.32-2.272 0.608-8.544 1.76-9.408 8.416-4.416 6.176 2.528 6.176 6.88-2.816 0-6.56 9.856-6.944 14.592-2.304-0.32-6.016-1.28-6.944-3.04-8.384 0-14.08 3.04-20.736 3.04-0.512 1.024-8.512 9.984-7.68 9.984-4.672 8.032 4.672 5.696 6.144 6.08 0 7.616 31.712 6.272 33.088 18.432-10.432 0 10.752 17.664 10.752 17.6 7.072 6.048 10.816 11.264 19.616 11.936 3.712 0.256 44.992 11.648 44.992 6.496 1.664-0.064 7.168-0.128 12.864-0.32C736.512 786.24 629.728 832 512 832c-114.016 0-217.792-42.944-296.864-113.12 0.704-1.6 1.248-3.136 1.216-4.224C220.544 714.944 226.56 717.632 227.904 712.32 225.824 712.352 223.744 712.608 221.76 713.12c1.472-11.872-5.184-4.608-10.752-4.608 0 0.288-2.464 1.28-5.088 1.984-1.696-1.6-3.488-3.104-5.184-4.704C200.928 705.28 200.64 705.248 200.96 704.672c1.792 0 0.864-2.784 5.984-4.48C212.864 698.176 219.36 697.056 225.6 696.064c5.056-0.8 7.968 0.928 12.288 0.928 0 0.64 10.56 5.344 3.104 5.344 1.024 4.224-0.864 5.28-5.408 5.344 0.384 4.48 11.04 1.536 15.392 1.536 3.328 5.6 0.096 4.928 3.04 10.016 3.52 6.24 7.712 0.832 10.016 6.816C267.52 724.768 270.624 722.88 271.744 718.464 274.528 716.16 288.672 695.296 288.672 710.048 293.728 708.352 296.256 698.88 296.352 693.92c9.184 1.344 9.984 8.224 9.984 15.36 2.112 0-0.768 3.424-0.768 4.608C308.992 715.136 313.28 710.624 313.28 715.392c1.472 0 1.536-1.472 1.536-3.072 4.768-0.928 7.84 0.544 10.752-0.48 2.016-0.704 0.992-11.168 0.064-14.848-1.152-4.672-10.08-4.736-10.08-6.912-10.112-7.552 11.936-11.488 15.392-16.096-2.08 0-9.984 1.024-9.984 1.504-4.992 0-17.088-5.28-21.536-1.504 6.208 0 8.288 7.456 9.248 14.56-5.728 2.144-12.48-1.376-14.08-7.072C291.904 672.064 285.664 681.856 282.528 675.52 281.312 675.136 270.208 669.984 270.208 671.712c-12.48-1.76-9.216-12.352-9.216-23.776C265.952 644.96 276.032 636.48 275.584 631.84 286.784 629.856 290.88 628.672 300.96 627.232c0.832-1.632 4.16-3.168 6.176-3.808 0-6.592 5.984-5.408 11.52-5.408 0 8.416 9.792-7.008 10.752-9.952-1.344 0 2.304-8.608 3.072-11.52-1.536 0.544-2.016 0-1.536-1.536 4.864-1.792 12.576-1.28 13.856 3.84-4.672 0-3.104 5.344-3.104 8.448-4.8 3.2-4.064 9.376 0.768 10.72 0-4.352 15.84 2.72 6.912 6.112 2.176 4.896 3.648 12.416 0.096 16.672-2.272 2.688-5.12 0-6.24 4.032 6.048 1.504 1.6 13.024 1.536 18.4 1.92 0.736 6.912-1.216 6.912 0 5.92 0 15.776-7.488 19.232 1.568 9.888-4.512 2.016-8.8 12.32-5.376 0-2.432 11.616-13.792 13.088-13.792 0-0.544-0.288-3.84 2.272-3.84 0-2.464-1.536 1.408-1.536-3.04 1.44-0.16 9.248-1.568 9.248 1.504 4.96 0 8.448 6.08 8.448 10.72 3.104 2.016 8.544-16.864 12.288-16.864 2.752-4.288 11.552-10.528 11.552-14.56 1.856-1.888 3.808-1.376 3.808-6.912 2.336 0 6.944 9.184 6.944 0.768 2.176 0 8.512-4.672 9.248-8.416-5.536 0-0.288-5.376-3.136-5.376 0-5.312-11.872-1.088-14.56-0.768-3.68-16.48-25.888-4.64-39.328-8.896-7.072-2.24-20.736-17.824-21.472-25.6 8.576-0.096 12.352 7.424 20 9.984 6.24 0 7.456 3.776 13.088 5.344 0-1.568 1.536-0.736 1.536-2.304-10.944 0-4.288-7.072-1.088-12.224 1.984-3.2 4.256-4.736 6.784-5.728-1.056-1.856-1.92-3.712-2.592-5.792 0-0.032-0.032 0-0.032-0.032-2.08-0.704-6.144-2.208-6.944-3.84-12.384-1.376-6.272-0.544-5.44 2.432 0.448-1.056 4.896-0.096 4.704-0.128-0.736 3.712-1.856 3.2-0.768 5.344-6.72 0-9.984-3.072-15.392-3.072-0.896-1.824-5.6-6.144-7.68-6.144-1.568-4.736-5.12-13.344-9.248-16.096 0 1.248-10.944-6.88-9.984-6.88-2.432-3.936-5.088-3.808-6.176-9.952-0.736-0.384-3.84-10.656-3.84-12.256-4.768-3.168-6.528-16.096-14.624-16.096-4.96-9.856-13.856-8.544-13.856-21.472 3.008-3.072 4.16-16.672 5.088-21.024 1.152-5.408 2.944-11.04-4.288-11.168-0.512 0.8-5.568 8.448-4.64 8.448 0 3.168-3.872 13.312-6.144 16.48-3.04 4.256-8.672-0.672-13.088 1.184-1.888 3.776-14.656 4.608-19.2 4.608 0.736-2.848 2.816-3.744 3.072-6.912-3.776-1.536-5.952-3.264-9.856-2.72-6.688 0.928-5.888 6.144-13.248 5.408-11.776-1.184-20-10.944-20-22.624-1.312 0-1.312-23.008 0-23.008 0-6.496 5.376-11.2 5.376-16.096 5.216 0 11.072-11.488 16.16-11.488 0.576-4.064-2.56-4.704 6.144-4.64 0 0.448 4.736 2.976 5.376 6.144-6.016 1.472-0.032 9.216 3.84 10.72 0-5.472 7.68 1.824 7.68 2.304 0.864 0.352 8.48 3.072 8.48 3.072 0 6.208 5.792-0.608 1.536-3.072-4.16 0-3.84-6.912-6.144-6.912-0.992-4.928-2.944-9.216-4.096-14.016-1.472-5.92 3.328-6.528 1.792-12.064 6.112-1.152 12.288-0.032 18.464 0 0.032 1.088-0.192 2.144-0.768 3.072 8.928 0 0.768-16.864 6.176-16.864 0-6.368 3.072-11.328 3.072-15.328 4.16-2.752 6.656-6.432 5.376-11.488 5.12-0.672 16.128-1.984 16.128 4.608 7.776 0 8.32-5.28 7.744-10.72 15.488 0 5.792 15.328 12.256 15.328 0.608 2.528 1.664 2.976 3.168 1.312 3.168-1.696 5.568 3.168 8.096 4.704 0.8 0.544 3.616 2.176 4.128 2.176 2.176-1.312 2.368-0.928 3.328-2.4 4.224 0.032 8.48 2.4 12.096 4.896 5.536-0.672 3.744-12.576 14.112-13.312 4.16-0.288 13.792-1.44 17.376 1.024 0.896 0.608 4.192-2.08 4.544-3.232 3.456 0 3.2-3.008 4.672-2.944 0.352-0.672 0.864-0.928 1.568-0.736 0.448-1.312 3.2-1.696 4.64-5.344 0-3.328 6.912-3.904 6.912-6.112 4.96-2.496-1.696-3.168 5.92-5.472 4.192-1.312 8.064-3.424 12.576-3.744 1.44 5.472 6.112-0.736 8.48-0.736 1.216-2.496 1.856-0.608 3.04-3.072 7.136-5.952 2.432-3.648 5.376-9.984 3.424-2.24 4.512-10.048 5.44-14.56-2.752 0-0.8-10.528-0.8-11.52-3.328 0 8.512-6.304 8.512 1.568 4.864-0.8 8.064-6.112 11.52-6.112-2.016-4.64 5.376-8.128 5.376-0.8 7.296-0.736 5.344-11.616 4.64-15.328 5.408 0 6.976 3.008 11.584 3.584C532.128 253.696 537.696 256 544 256c17.696 0 32-14.304 32-32 0-15.936-11.872-28.576-27.136-31.008-2.048-2.336-3.904-4.352-4.032-4.352 0-1.536-0.352-16.832-0.8-16.832 0-3.072-2.336-19.936-4.608-19.936 0-8.672-5.664-10.24-7.68-18.4-4.672-3.456-17.312-9.216-19.264-13.024-3.616 0-6.304-3.072-9.984-3.072-0.512-1.056-8.352-8.448-6.944-8.448-0.576-5.44 0.416-18.24-2.528-21.824-1.984-2.368-4.832-2.112-3.584-5.824-4.32 0 0.256-3.072-6.56-3.072-4.288 0-11.936-6.112-12.16-11.296-0.288-6.336-1.984-10.912-7.424-14.784 0-2.176-9.984-2.816-9.984-8.448 0.928 0 0-10.432 0-11.488-2.976 0.096-10.272-2.88-11.52-5.344-10.048 0-8.832-1.024-15.36-5.376 0-1.344-0.928-6.112-2.304-6.112 0-7.776-5.536-0.704-10.016-4.64 1.76 0 4-7.648 3.072-7.648 0-6.752-4.192-7.328-8.448-12.288-2.016-1.344-3.936-6.912-5.376-6.912 0-4.544-2.272-8.672-2.272-13.024 0.96 0 0.064-1.952 0.736-3.776 2.144 0.608 2.208 3.04 3.072 3.04 0 3.84 6.112-2.272 2.304-2.272-3.168-4.8-6.592-4.896-8.48-11.52-1.92 0-3.584-1.856-4.992-4.032C431.424-57.984 470.976-64 512-64c157.568 0 295.872 81.536 375.744 204.576 0.48 11.328 2.24 22.144 3.488 25.888 3.136-2.304 5.472-6.624 7.68 0-5.536 1.088-4.192 3.008-2.304 7.648 2.112-1.28 6.368-2.848 9.824-2.624 1.056 1.984 1.888 4.096 2.944 6.08-3.136 2.432 1.184 8.736 2.688 5.664 0.8 1.536 1.504 3.136 2.24 4.672-0.352 0.096-0.256-0.128-0.768 0.032 0 2.784 0.512 2.432 2.336 3.84 0.032-0.288 0-0.288 0.064-0.544C943.872 249.696 960 314.88 960 384c0 2.272-0.32 4.448-0.352 6.72-0.832-3.136-2.4-6.528-4.608-7.296 0-2.016-22.88-11.968-21.504-16.096-4.032 0-18.176-4.032-20.768-9.184-2.848 0-14.336-4.064-15.392-6.144C883.104 351.968 885.824 368.832 878.944 368.832zM944 544l-16.992 0c-0.128 0.16-0.256 0.192-0.384 0.416-0.864 0-4.48 8.128-3.072 9.984 1.376 0 2.016-0.128 2.752-0.192-1.44 3.52-3.008 6.976-4.576 10.464-3.456-2.368-6.496-5.376-11.264-5.664 0-1.312-6.816-14.56 0-14.56 0-0.256 0.128-0.448 0.192-0.672C902.496 543.008 896 536.352 896 528c0-8.832 7.168-16 16-16l6.304 0c0.384-2.912 1.952-5.44 7.552-6.688 1.76-7.392 14.944-10.016 16.928-2.272-5.568 0-3.744 5.344-3.264 8.96L944 512c8.8 0 16 7.168 16 16C960 536.832 952.8 544 944 544zM897.376 335.936c1.12-0.064 8.512 0.128 8.512 1.44 6.688 0 15.744 0.928 22.304 3.104 0-9.92-8.352-15.456-6.944-25.312-5.536 0-3.104-5.696-3.104-7.648-3.584-2.208-4.128-6.24-8.448-8.448 0-4.448-9.984-11.808-12.928-15.616-3.328-4.256-13.344-11.648-14.656-17.056 0.352 1.28-18.304-19.424-13.952-19.424 0-3.872-5.248-34.496 1.536-34.496 0-2.688 5.792-28.384 2.272-28.384 0-8.256-5.376-13.312-5.376-19.904-2.624-1.792-6.368-2.784-7.68-5.408-4.704 0-6.976-9.984-9.216-9.984 0-10.656-3.104-18.56-3.104-30.656 0.864 0-6.144-17.248-6.144-18.368-5.664-3.808-20-17.472-20-24.576 0 0-9.984-14.016-11.52-16.096-3.008 0-26.176-4.352-26.176-6.144-4.928 0-17.664-3.872-20.736 0.768 0 4.864-2.656 11.04-3.072 17.664-2.368 0-2.752 9.952-5.376 9.952 0 2.112-14.688 31.456-12.32 31.456 0 3.04-2.624 13.024-3.072 13.024 0 10.56-7.712 19.36-7.712 29.12-2.272 0-6.976 21.44-4.608 21.44 0 11.264 3.936 18.624 5.568 31.136 1.824 13.728-0.864 22.08-3.264 31.776-1.312 0-5.728 7.328-6.176 9.184-6.176 4.096-8.448 12.224-8.448 19.904 4.032 4.608 5.632 21.92 4.64 27.616-7.776 3.68-10.88 2.304-19.264 2.304-4.96 9.952-38.272 3.808-47.712 3.808 0-5.44-23.2 1.056-25.376 5.376-5.664 0-16.896 12.032-16.896 17.632-6.208 4.128-16.128 24.672-16.128 31.424-5.376 2.688-3.744 13.056-0.8 13.056 0.736 2.88-1.888 11.968-3.136 16.288-0.928 3.232 3.136 6.72 3.136 10.56 0 10.688 0.256 15.616 6.24 27.04 1.888 3.584 4.288 6.944 6.048 11.424 3.2 8.032 4.16 0.384 8.48 7.552 4.128 2.048 6.528 8.896 10.784 12.256 1.856 2.464 1.92 3.488 0 5.376 0.832 0 5.376 11.808 5.376 14.528 6.016 8.352 1.76 4.544 7.68 3.84 2.176 2.368 5.792 8.448 9.216 8.448 1.504 2.976 5.28 4.608 8.48 4.608 0-4.608 12.544 1.504 13.856 1.504 2.144 4.32 15.968 9.216 19.232 9.216 0 5.248 27.264-1.472 31.552-0.768 0 0.768 0 1.536 0 2.304 5.824-1.376 16.448-24.736 15.36-29.92 4.48 0 8.64 0.736 11.552 0 0-4.96 9.344-6.176 13.6-6.4 5.92-0.288 23.296 0.608 23.296 8.704 4.576 0 8.64-3.2 7.744-8.416 5.184-0.576 36-1.184 33.824-7.648 4.512 0 5.664-7.712 9.984-7.712-0.864-5.312 5.376-19.168 9.984-19.168 0-4.608 2.88-13.088 6.944-16.064 2.176-6.592 9.376-20.48 16.128-24.544-2.88-5.44 4.384-9.92 6.176-15.328-0.416 0 1.568-8.032 3.808-9.216 0-5.44 11.456-27.616 17.728-27.616C895.488 337.76 889.184 336.544 897.376 335.936zM731.264 507.616c1.184 4.576 3.872 1.024 6.368 0.192 5.92-1.92 3.872 0.096 8.256 2.08C745.888 497.408 738.72 506.88 731.264 507.616zM715.072 530.624c3.136 0 4-14.08-4.608-11.488 0 3.488-2.208 9.952 2.336 9.952C714.112 523.648 715.072 525.856 715.072 530.624zM711.264 539.808c3.552-1.536 5.12-1.024 4.608 1.536 4.672-1.536-0.608-4.864-1.536-8.448C711.936 535.264 712.672 536.096 711.264 539.808zM628.928 608.064c-7.552 1.952 7.776 4.192 8.448 6.112-2.56 0-4.32 2.656-3.328 4.896 1.152 2.656 3.04-3.168 5.664-1.856 3.104 0.32 9.216 4.96 6.08-4-3.2-9.088-6.112-15.744-17.632-15.904C624.032 601.472 628 603.648 628.928 608.064zM657.408 639.488c6.208 0 0.768-4.608-0.608-4.608 1.056-0.416-0.192-4.128-0.192-5.344 5.76 0.064 5.856 3.584 9.984 4.608-0.864-5.152-6.624-6.144-0.992-10.56 2.976-2.336 6.016-5.088 4.832-8.64 7.328 0 8.416-7.04 6.912-15.328 4.064 0 3.872-0.192 3.872 3.872 3.936-1.088 3.648-4.64 0-4.64-3.648-7.2-13.216-6.88-20-6.88-0.064 5.568-1.12 5.92-6.272 4.352-7.04-2.144-1.536 5.6-1.408 9.44 0.768 0 15.968-0.704 6.912 2.304-0.48 8.256-2.336 10.72-9.984 10.72 0 5.632-1.984 5.216-2.912 11.392C646.24 639.296 654.688 629.536 657.408 639.488zM655.072 589.664c0-1.888-3.84-3.392-4.608-0.736 0.736-0.256 1.024 0 0.736 0.736C652.512 589.664 653.824 589.664 655.072 589.664zM592 672l-32 0C551.168 672 544 679.168 544 688 544 696.832 551.168 704 560 704l32 0C600.832 704 608 696.832 608 688 608 679.168 600.832 672 592 672zM405.568 388.8c1.792 0 3.872-0.704 3.872-2.304C407.104 386.496 404.096 384.288 405.568 388.8zM376.384 387.232c-1.28-2.432-11.648-2.016-13.088 0.8 3.84 0 6.816-1.568 10.752 0 0 2.112-1.76 3.808-3.072 6.112 4.192 0 8.896-3.2 14.624-3.072 0 3.552-1.568-0.768 0 3.84 2.4-0.608 8.192-6.112 8.448-8.416C385.632 387.392 385.248 387.232 376.384 387.232zM342.528 405.632c-3.936 0-11.52 3.424-13.856 6.912 3.808-0.16 7.584-1.728 9.984 2.304 9.76-0.992 10.624-7.712 18.464-7.712 1.472-2.592 9.856-8.544 1.76-9.312C352.768 397.248 345.088 400.576 342.528 405.632zM348.672 384.16c-2.848 0-7.552-1.248-5.376 4.64C347.072 388.288 348.864 386.72 348.672 384.16zM354.048 384.928c-1.536-0.256-3.072-0.512-4.608-0.768C349.888 387.712 353.248 391.68 354.048 384.928zM382.496 351.232c-0.608-2.144-0.512-2.272-3.04-2.272 0.256 0.992 0.48 1.984 0.736 3.04C380.992 351.744 381.728 351.488 382.496 351.232zM313.28 414.848c0.736-0.256 1.536-0.544 2.304-0.768 0.992-3.808 3.072-1.92 5.376-0.768C320.96 408.864 310.656 407.584 313.28 414.848z"  horiz-adv-x="1024" />

    
    <glyph glyph-name="settings" unicode="&#59332;" d="M972.497609 490.25268l-98.044936 19.647386c-4.927846 14.175557-10.751664 27.935127-17.183463 41.246711l55.550264 83.325396c16.927471 25.375207 13.567576 59.19815-7.99975 80.733477l-61.566076 61.566076c-12.383613 12.383613-28.735102 18.751414-45.310584 18.751414-12.255617 0-24.63923-3.51989-35.422893-10.751664l-83.325396-55.518265c-13.375582 6.463798-27.135152 12.223618-41.310709 17.151464l-19.647386 98.076935c-5.951814 29.951064-32.254992 51.454392-62.750039 51.454392l-87.03728 0c-30.495047 0-56.766226-21.535327-62.750039-51.454392l-19.647386-98.076935c-14.175557-4.927846-27.935127-10.719665-41.246711-17.151464l-83.293397 55.518265c-10.847661 7.231774-23.199275 10.751664-35.486891 10.751664-16.543483 0-32.894972-6.367801-45.278585-18.751414l-61.534077-61.566076c-21.567326-21.567326-24.927221-55.35827-7.99975-80.733477l55.518265-83.325396c-6.463798-13.343583-12.223618-27.103153-17.151464-41.27871l-98.108934-19.615387c-29.919065-5.983813-51.454392-32.254992-51.454392-62.750039l0-87.03728c0-30.495047 21.535327-56.798225 51.454392-62.750039l98.076935-19.679385c4.927846-14.175557 10.719665-27.935127 17.151464-41.246711l-55.486266-83.325396c-16.927471-25.375207-13.567576-59.19815 7.99975-80.733477l61.566076-61.566076c12.383613-12.383613 28.735102-18.751414 45.278585-18.751414 12.287616 0 24.671229 3.551889 35.454892 10.751664l83.325396 55.550264c13.343583-6.495797 27.103153-12.255617 41.27871-17.183463l19.615387-98.044936c5.983813-29.951064 32.254992-51.486391 62.750039-51.486391l87.03728 0c30.495047 0 56.798225 21.567326 62.750039 51.486391l19.679385 98.044936c14.175557 4.927846 27.935127 10.751664 41.246711 17.183463l83.325396-55.550264c10.815662-7.199775 23.199275-10.751664 35.422893-10.751664 16.575482 0 32.926971 6.367801 45.310584 18.751414l61.566076 61.566076c21.567326 21.567326 24.927221 55.35827 7.99975 80.733477l-55.550264 83.325396c6.495797 13.375582 12.255617 27.135152 17.183463 41.310709l98.044936 19.615387c29.919065 5.919815 51.486391 32.254992 51.486391 62.750039l0 87.03728c0 30.495047-21.567326 56.766226-51.486391 62.750039zM861.877066 320.817974c-22.239305-4.447861-40.446736-20.319365-47.870504-41.758695-4.127871-11.807631-8.927721-23.263273-14.303553-34.366926-9.951689-20.447361-8.255742-44.574607 4.319865-63.422018l55.550264-83.325396-61.566076-61.566076-83.325396 55.550264c-10.687666 7.135777-23.071279 10.751664-35.486891 10.751664-9.503703 0-19.071404-2.111934-27.871129-6.367801-11.135652-5.375832-22.559295-10.23968-34.430924-14.367551-21.375332-7.423768-37.246836-25.631199-41.694697-47.870504l-19.679385-98.108934-87.03728 0-19.615387 98.108934c-4.447861 22.239305-20.319365 40.446736-41.726696 47.870504-11.807631 4.127871-23.295272 8.927721-34.398925 14.303553-8.831724 4.319865-18.367426 6.431799-27.903128 6.431799-12.447611 0-24.799225-3.615887-35.486891-10.751664l-83.325396-55.550264-61.566076 61.566076 55.518265 83.325396c12.575607 18.87941 14.207556 43.006656 4.383863 63.35802-5.375832 11.135652-10.207681 22.559295-14.335552 34.430924-7.423768 21.375332-25.663198 37.246836-47.870504 41.694697l-98.076935 19.679385-0.063998 87.069279 98.108934 19.615387c22.207306 4.447861 40.446736 20.319365 47.870504 41.726696 4.127871 11.807631 8.895722 23.295272 14.303553 34.398925 9.91969 20.415362 8.255742 44.542608-4.351864 63.390019l-55.486266 83.325396 61.534077 61.566076 83.325396-55.518265c10.687666-7.135777 23.071279-10.751664 35.486891-10.751664 9.503703 0 19.039405 2.111934 27.871129 6.367801 11.103653 5.375832 22.559295 10.207681 34.398925 14.335552 21.407331 7.423768 37.278835 25.663198 41.726696 47.870504l19.647386 98.076935 87.03728 0.031999 19.615387-98.108934c4.447861-22.207306 20.319365-40.446736 41.758695-47.870504 11.807631-4.127871 23.263273-8.895722 34.366926-14.303553 8.863723-4.287866 18.367426-6.3998 27.935127-6.3998 12.447611 0 24.799225 3.615887 35.486891 10.751664l83.325396 55.518265 61.566076-61.566076-55.550264-83.325396c-12.575607-18.87941-14.175557-42.974657-4.383863-63.35802 5.375832-11.103653 10.23968-22.559295 14.367551-34.398925 7.423768-21.407331 25.631199-37.278835 47.870504-41.726696l98.044936-19.647386 0.095997-87.03728-98.108934-19.647386zM512 607.977001c-123.676135 0-223.993-100.316865-223.993-223.993 0-123.708134 100.316865-223.993 223.993-223.993s223.993 100.316865 223.993 223.993c0 123.676135-100.316865 223.993-223.993 223.993zM512 187.958126c-108.220618 0-195.993875 87.805256-195.993875 195.993875s87.773257 195.993875 195.993875 195.993875c108.188619 0 195.993875-87.773257 195.993875-195.993875 0-108.188619-87.805256-195.993875-195.993875-195.993875zM512 511.980001c-70.71779 0-127.996-57.27821-127.996-127.996s57.27821-127.996 127.996-127.996c70.685791 0 127.996 57.310209 127.996 127.996s-57.310209 127.996-127.996 127.996zM512 287.955001c-52.990344 0-95.997 43.006656-95.997 95.997s43.006656 95.997 95.997 95.997 95.997-43.006656 95.997-95.997c0-52.990344-43.006656-95.997-95.997-95.997z"  horiz-adv-x="1024" />

    
    <glyph glyph-name="bianji" unicode="&#58882;" d="M650.002 32.276h-351.724c-64.65 0-117.241 52.591-117.241 117.241v390.805c0 64.65 52.591 117.241 117.241 117.241h351.724c10.801 0 19.54-8.749 19.54-19.54 0-10.791-8.739-19.54-19.54-19.54l-351.724 0c-43.107 0-78.161-35.064-78.161-78.161v-390.805c0-43.107 35.054-78.161 78.161-78.161h351.724c43.107 0 78.161 35.054 78.161 78.161l-0 390.805c0 10.791 8.74 19.54 19.54 19.54 10.801 0 19.54-8.749 19.54-19.54v-390.805c0-64.65-52.59-117.241-117.241-117.241zM574.285 447.505c-4.999 0-9.999 1.908-13.816 5.724-7.633 7.633-7.633 19.998 0 27.631l249.138 249.137c7.633 7.633 19.998 7.633 27.631 0 7.633-7.633 7.633-19.998 0-27.631l-249.138-249.136c-3.817-3.817-8.817-5.725-13.816-5.725zM469.255 447.505h-180.747c-10.8 0-19.54 8.749-19.54 19.54s8.74 19.54 19.54 19.54h180.747c10.801 0 19.54-8.749 19.54-19.54s-8.739-19.54-19.54-19.54zM659.773 283.856h-371.264c-10.8 0-19.54 8.74-19.54 19.54s8.74 19.54 19.54 19.54h371.264c10.801 0 19.54-8.74 19.54-19.54s-8.739-19.54-19.54-19.54z"  horiz-adv-x="1024" />

    
    <glyph glyph-name="result" unicode="&#58903;" d="M65.090461 768.415206l0-768.82939 893.819079 0L958.909539 768.415206 65.090461 768.415206zM908.126946 51.342598 115.9058 51.342598l0 655.048997L908.126946 706.391594 908.126946 51.342598zM301.136501 465.803097l-101.551884 0 0 99.100042 101.551884 0L301.136501 465.803097zM834.209446 503.824039 334.880023 503.824039l0 20.400632 499.329423 0L834.209446 503.824039zM301.136501 309.889095l-101.551884 0 0 99.100042 101.551884 0L301.136501 309.889095zM834.209446 348.017484 334.880023 348.017484l0 20.273742 499.329423 0L834.209446 348.017484zM301.136501 153.997606l-101.551884 0 0 99.141998 101.551884 0L301.136501 153.997606zM834.209446 192.104505 334.880023 192.104505l0 20.314675 499.329423 0L834.209446 192.104505z"  horiz-adv-x="1024" />

    
    <glyph glyph-name="custom-ok" unicode="&#58929;" d="M512 896c-282.304 0-512-229.696-512-512 0-282.283 229.696-512 512-512 282.283 0 512 229.717 512 512 0 282.304-229.717 512-512 512zM512-85.291c-258.795 0-469.312 210.517-469.312 469.291 0 258.795 210.517 469.312 469.312 469.312 258.773 0 469.291-210.517 469.291-469.312 0-258.773-210.517-469.291-469.291-469.291zM870.059 620.373c-8.597 8.043-22.144 7.573-30.187-1.067l-396.523-424.853-161.045 172.544c-8.021 8.619-21.547 9.067-30.165 1.067-8.619-8.064-9.088-21.568-1.045-30.187l176.661-189.248c4.032-4.331 9.685-6.741 15.595-6.741 5.909 0 11.563 2.453 15.616 6.763l412.139 441.557c8.043 8.597 7.573 22.101-1.045 30.165z"  horiz-adv-x="1024" />

    
    <glyph glyph-name="authorize" unicode="&#58984;" d="M523.159154 471.417979l53.93847 0c-9.299807 22.319331-18.599613 42.778292-27.89942 63.238276l24.179702 9.299807-63.238276-3.719718 35.338856-53.93847C536.178679 482.577133 528.739243 476.997044 523.159154 471.417979zM683.113169 372.840846 683.113169 419.338856 502.69917 419.338856 502.69917 385.860371 673.813363 385.860371ZM662.654208 471.417979l-26.03905 11.159154c13.019525 18.599613 24.179702 40.917922 31.619138 68.817342l-68.817342-5.580089c3.719718-5.580089 13.019525-24.179702 27.89942-57.658188-16.739243-7.439436-29.758768-13.019525-35.338856-16.739243l70.676689 0L662.654208 471.417979zM817.028135 780.166855c-98.576109 33.478486-200.87296 50.217728-305.029158 50.217728S305.545928 813.64534 206.970842 780.166855c-48.358381-14.878872-83.696214-61.377906-83.696214-111.595634l0-355.246887c0-42.778292 24.179702-111.595634 59.518558-150.654208 145.073096-148.795884 236.210793-225.052662 329.206814-225.052662s184.133717 76.256778 329.207837 225.051639c37.198204 39.058574 59.518558 107.875916 59.518558 150.654208L900.726396 668.570197C900.725372 716.928578 863.526145 767.146307 817.028135 780.166855zM394.823254 190.567499c0-11.159154-5.580089-18.599613-14.878872-24.179702-14.878872-7.439436-39.058574-13.019525-72.53706-14.878872-1.860371 24.179702-7.439436 44.638663-14.878872 63.238276 9.299807-1.859347 18.599613-1.859347 22.319331-1.859347 14.878872 0 22.319331 5.580089 22.319331 18.599613l0 92.997044c-1.860371 0-14.878872-5.580089-42.778292-18.599613-3.719718 18.599613-11.159154 39.058574-18.599613 61.377906 22.319331 3.719718 42.778292 11.159154 61.377906 18.599613l0 83.696214-57.658188-1.860371 0 55.79884 57.658188-1.860371c0 35.338856 0 68.817342-1.860371 94.857415l59.518558 0c-1.860371-27.89942-1.860371-59.518558-1.860371-94.857415l37.198204 1.860371 0-55.79884c-13.019525 0-26.03905 1.860371-37.198204 1.860371l0-61.377906c13.019525 5.580089 26.03905 11.159154 39.058574 18.599613-1.860371-14.878872-3.719718-35.338856-3.719718-61.377906-3.719718-1.860371-7.439436-3.719718-11.159154-3.719718l-22.319331-14.878872L394.8253 190.567499 394.823254 190.567499zM720.311373 147.788184c-52.079122 11.159154-98.577133 33.478486-141.355425 63.238276-42.778292-29.758768-89.277326-50.217728-137.635707-61.377906-7.439436 20.459984-16.739243 40.917922-31.619138 59.518558 42.778292 1.859347 83.696214 14.878872 122.755812 40.917922-14.878872 18.599613-31.619138 39.058574-46.49801 66.957994 11.161201 5.579065 26.041096 11.158131 40.919968 20.458961-14.878872 0-27.89942 0-42.778292-1.860371l0 35.338856-40.917922 0 0 102.296851 44.63764-1.860371c-7.439436 13.019525-16.739243 29.758768-29.758768 48.358381 11.159154 3.719718 22.319331 11.159154 35.338856 18.599613-13.019525 0-26.03905-1.860371-39.058574-1.860371-3.719718 13.019525-11.159154 33.478486-22.319331 59.518558 102.296851-7.439436 189.712783 0 260.390495 24.179702 7.439436-13.019525 18.599613-27.89942 33.478486-46.49801l9.299807-11.159154c-22.319331-3.719718-42.778292-7.439436-65.097624-9.299807 13.019525-5.580089 29.758768-13.019525 50.217728-20.459984-9.299807-18.599613-18.599613-39.058574-29.758768-61.377906l50.217728 1.860371c-1.860371-26.03905-1.860371-59.518558 0-104.156198l-53.93847 0 9.299807-11.159154c-16.739243-39.058574-42.778292-76.256778-72.53706-109.736287 37.198204-24.179702 78.117149-37.198204 124.616182-40.917922C731.47155 177.546951 722.171744 157.08799 720.311373 147.788184zM577.096601 283.56352c20.459984 22.319331 33.478486 40.917922 40.917922 53.93847L538.038026 337.50199C552.917922 311.46294 565.937446 294.723697 577.096601 283.56352z"  horiz-adv-x="1024" />

    
    <glyph glyph-name="checktriangle" unicode="&#59088;" d="M64-64l832 0c35.392 0 64 28.608 64 64L960 832 64-64zM674.88 21.76C667.136 9.344 653.632 0 638.976 0c-0.64 0-1.344 0-1.344 0-14.656 0-27.776 7.36-36.224 18.496L457.28 199.68c-14.848 19.648-11.008 47.808 8.64 62.784 19.776 14.72 47.616 11.008 62.528-8.64l105.024-129.152 189.248 303.808c12.992 20.864 40.512 27.264 61.376 14.272 20.992-12.992 27.264-40.512 14.272-61.44L674.88 21.76z"  horiz-adv-x="1024" />

    
    <glyph glyph-name="bianji1" unicode="&#58950;" d="M910.74661 698.180586 387.350049 174.784024c-17.795295-17.795295-46.651506-17.795295-64.446801 0-17.797341 17.797341-17.797341 46.651506 0 64.448848l523.396561 523.393491c17.795295 17.797341 46.648436 17.797341 64.446801 0C928.541905 744.831069 928.541905 715.977927 910.74661 698.180586zM601.187275 725.782224 236.619092 725.782224c-25.169239 0-45.570895-20.401656-45.570895-45.570895l0-592.422657c0-25.169239 20.401656-45.570895 45.570895-45.570895L737.89996 42.217776c25.169239 0 45.570895 20.401656 45.570895 45.570895L783.470855 361.215064c0 25.169239 20.401656 45.570895 45.570895 45.570895s45.570895-20.401656 45.570895-45.570895l0-296.211329c0-62.920028-51.007721-113.927749-113.927749-113.927749L213.834156-48.924014c-62.920028 0-113.927749 51.007721-113.927749 113.927749L99.906407 702.997288c0 62.920028 51.007721 113.927749 113.927749 113.927749l387.353119 0c25.169239 0 45.570895-20.401656 45.570895-45.570895S626.356514 725.782224 601.187275 725.782224z"  horiz-adv-x="1024" />

    
    <glyph glyph-name="bluetooth1" unicode="&#58954;" d="M705.61792 521.5232c5.55008 3.87072 8.84736 10.21952 8.78592 16.9984-0.06144 6.7584-3.44064 13.06624-9.05216 16.81408l-204.8 137.50272c-6.28736 4.21888-14.37696 4.62848-21.05344 1.08544-6.656-3.56352-10.83392-10.52672-10.83392-18.08384L468.66432 406.528l-22.016-15.31904-150.48704 106.31168c-9.25696 6.53312-22.016 4.34176-28.54912-4.89472-6.53312-9.23648-4.34176-22.016 4.89472-28.54912l138.36288-97.75104-138.24-96.17408c-9.27744-6.4512-11.5712-19.23072-5.12-28.52864s19.23072-11.5712 28.52864-5.12l150.4256 104.67328 22.20032-15.68768L468.66432 61.44c0-7.4752 4.05504-14.336 10.62912-17.94048 3.072-1.69984 6.4512-2.53952 9.85088-2.53952 3.82976 0 7.63904 1.06496 10.97728 3.1744l204.8 129.98656c5.75488 3.66592 9.3184 9.95328 9.50272 16.7936 0.16384 6.81984-3.072 13.27104-8.66304 17.22368l-196.13696 138.58816 0 38.42048L705.61792 521.5232zM509.60384 637.41952l148.02944-99.38944-148.02944-102.99392L509.60384 637.41952zM657.14176 192.34816l-147.53792-93.63456L509.60384 296.5504 657.14176 192.34816z"  horiz-adv-x="1024" />

    
    <glyph glyph-name="bluetoothconnect" unicode="&#59047;" d="M810.666667 469.333333 725.333333 384 810.666667 298.666667 896 384M634.88 200.96 554.666667 120.746667 554.666667 281.173333M554.666667 647.253333 634.88 567.04 554.666667 487.253333M755.626667 567.04 512 810.666667 469.333333 810.666667 469.333333 487.253333 273.493333 682.666667 213.333333 622.506667 451.84 384 213.333333 145.92 273.493333 85.333333 469.333333 281.173333 469.333333-42.666667 512-42.666667 755.626667 200.96 572.16 384M298.666667 384 213.333333 469.333333 128 384 213.333333 298.666667 298.666667 384Z"  horiz-adv-x="1024" />

    
    <glyph glyph-name="bluetoothtransfer" unicode="&#59050;" d="M627.626667 567.04 444.16 384 627.626667 200.96 384-42.666667 341.333333-42.666667 341.333333 281.173333 145.493333 85.333333 85.333333 145.493333 323.84 384 85.333333 622.506667 145.493333 682.666667 341.333333 486.826667 341.333333 810.666667 384 810.666667 627.626667 567.04M426.666667 647.253333 426.666667 486.826667 506.88 567.04 426.666667 647.253333M506.88 200.96 426.666667 281.173333 426.666667 120.746667 506.88 200.96M938.666667 554.666667 853.333333 554.666667 853.333333 426.666667 768 426.666667 768 554.666667 682.666667 554.666667 810.666667 725.333333 938.666667 554.666667M938.666667 213.333333 810.666667 42.666667 682.666667 213.333333 768 213.333333 768 341.333333 853.333333 341.333333 853.333333 213.333333 938.666667 213.333333Z"  horiz-adv-x="1024" />

    
    <glyph glyph-name="ai-module" unicode="&#58888;" d="M384 416h-288c-51.2 0-96 44.8-96 96v288c0 51.2 44.8 96 96 96h288c51.2 0 96-44.8 96-96v-288c0-51.2-44.8-96-96-96zM384-128h-288c-51.2 0-96 44.8-96 96v288c0 51.2 44.8 96 96 96h288c51.2 0 96-44.8 96-96v-281.6c0-57.6-44.8-102.4-96-102.4zM787.2-128v0c-134.4 0-243.2 108.8-243.2 236.8v0c0 134.4 108.8 236.8 236.8 236.8v0c134.4 0 236.8-108.8 236.8-236.8v0c6.4-128-102.4-236.8-230.4-236.8zM928 416h-288c-51.2 0-96 44.8-96 96v288c0 51.2 44.8 96 96 96h281.6c57.6 0 102.4-44.8 102.4-96v-288c0-51.2-44.8-96-96-96z"  horiz-adv-x="1024" />

    
    <glyph glyph-name="3401caidan" unicode="&#58979;" d="M895.108956 704.066643 381.95876 704.066643c-35.147498 0-63.642482-28.493961-63.642482-63.643506 0-35.147498 28.494984-63.642482 63.642482-63.642482l513.150196 0c35.149545 0 63.642482 28.494984 63.642482 63.642482C958.751439 675.572682 930.257477 704.066643 895.108956 704.066643zM895.108956 446.193481 381.95876 446.193481c-35.147498 0-63.642482-28.493961-63.642482-63.643506 0-35.148521 28.494984-63.642482 63.642482-63.642482l513.150196 0c35.149545 0 63.642482 28.494984 63.642482 63.642482C958.751439 417.69952 930.257477 446.193481 895.108956 446.193481zM893.062344 192.41252 379.912148 192.41252c-35.147498 0-63.642482-28.493961-63.642482-63.642482 0-35.148521 28.494984-63.642482 63.642482-63.642482l513.150196 0c35.149545 0 63.642482 28.494984 63.642482 63.642482C956.704826 163.919583 928.210865 192.41252 893.062344 192.41252zM130.647037 638.974136m-61.398372 0a60 60 0 1 0 122.796744 0 60 60 0 1 0-122.796744 0ZM124.5072 381.100974m-61.398372 0a60 60 0 1 0 122.796744 0 60 60 0 1 0-122.796744 0ZM126.553813 129.367649m-61.398372 0a60 60 0 1 0 122.796744 0 60 60 0 1 0-122.796744 0Z"  horiz-adv-x="1024" />

    
    <glyph glyph-name="theearth2diqiu" unicode="&#58921;" d="M873.7792 22.2208C773.5296-77.9264 653.0048-128 512-128c-141.0048 0-261.5296 50.0736-361.7792 150.2208C50.0736 122.4704 0 242.9952 0 384c0 140.9024 50.0736 261.5296 150.2208 361.7792C250.4704 845.9264 370.9952 896 512 896c141.0048 0 261.5296-50.0736 361.7792-150.2208C973.9264 645.5296 1024 524.9024 1024 384 1024 242.9952 973.9264 122.4704 873.7792 22.2208zM22.2208 406.2208l979.456 0 0-44.544L22.2208 361.6768 22.2208 406.2208zM843.1616 715.1616C752.2304 805.9904 641.8432 851.456 512 851.456c-129.8432 0-240.2304-45.4656-331.1616-136.2944C90.0096 624.2304 44.544 513.8432 44.544 384c0-129.8432 45.4656-240.3328 136.2944-331.1616C271.7696-37.9904 382.1568-83.456 512-83.456c129.8432 0 240.2304 45.4656 331.1616 136.3968C933.9904 143.6672 979.456 254.1568 979.456 384 979.456 513.8432 933.9904 624.2304 843.1616 715.1616zM136.2944 690.0736l22.2208 38.912C251.392 677.0688 369.152 651.1616 512 651.1616c142.848 0 260.608 26.0096 353.3824 77.9264l22.2208-38.912C787.456 634.4704 662.2208 606.6176 512 606.6176 361.7792 606.6176 236.544 634.4704 136.2944 690.0736zM865.3824 38.912C772.608 90.8288 654.848 116.8384 512 116.8384c-142.848 0-260.608-26.0096-353.3824-77.9264l-22.2208 38.912C238.3872 133.5296 363.6224 161.3824 512 161.3824c150.2208 0 275.456-27.8528 375.7056-83.456L865.3824 38.912zM701.2352 19.456C649.3184-78.848 586.24-128 512-128S374.6816-78.336 322.7648 20.8896C270.848 120.0128 244.8384 241.152 244.8384 384c0 142.848 26.0096 263.8848 77.9264 363.1104C374.6816 846.336 437.76 896 512 896s137.3184-49.664 189.2352-148.8896C753.152 647.8848 779.1616 526.848 779.1616 384 779.1616 241.152 753.152 119.7056 701.2352 19.456zM667.8528 712.3968C623.3088 805.0688 571.392 851.456 512 851.456S400.6912 805.0688 356.1472 712.3968C311.6032 619.52 289.3824 510.1568 289.3824 384c0-126.1568 22.2208-235.6224 66.7648-328.2944C400.6912-37.1712 452.608-83.456 512-83.456s111.3088 46.2848 155.8528 139.1616C712.3968 148.3776 734.6176 257.8432 734.6176 384 734.6176 510.1568 712.3968 619.52 667.8528 712.3968zM489.7792 873.7792l44.544 0 0-979.456L489.7792-105.6768 489.7792 873.7792z"  horiz-adv-x="1024" />

    
    <glyph glyph-name="bluetooth2lanya" unicode="&#59189;" d="M102.4 237.6704 102.4 530.3296c0 103.6288 33.1776 190.464 99.4304 260.608C268.0832 860.9792 350.8224 896 449.8432 896 548.864 896 631.5008 860.9792 697.856 790.8352 764.1088 720.7936 797.2864 633.856 797.2864 530.3296l0-292.5568c0-103.6288-33.1776-190.464-99.4304-260.608C631.5008-92.9792 548.864-128 449.8432-128c-99.0208 0-181.76 35.0208-248.0128 105.1648C135.5776 47.2064 102.4 134.144 102.4 237.6704zM138.9568 530.3296l0-292.5568c0-94.5152 29.696-172.9536 89.1904-235.4176 59.392-62.464 133.3248-93.696 221.696-93.696s162.304 31.232 221.696 93.696c59.392 62.464 89.1904 140.9024 89.1904 235.4176L760.7296 530.3296c0 94.5152-29.696 172.9536-89.1904 235.4176-59.392 62.464-133.3248 93.696-221.696 93.696S287.5392 828.2112 228.1472 765.7472C168.6528 703.2832 138.9568 624.7424 138.9568 530.3296zM449.8432-18.3296c-3.072 0-5.3248 0.8192-6.8608 2.2528C435.3024-12.9024 431.5136-7.5776 431.5136 0L431.5136 333.7216 241.8688 169.1648C232.6528 160.0512 224.256 160.768 216.6784 171.4176 207.5648 180.5312 208.2816 188.928 218.9312 196.608L431.5136 384 218.9312 571.392C208.2816 579.072 207.5648 587.4688 216.6784 596.5824 224.256 607.232 232.6528 608.0512 241.8688 598.8352l189.7472-164.5568L431.616 768c0 7.5776 3.7888 13.0048 11.4688 15.9744 6.144 4.608 12.1856 3.7888 18.3296-2.2528L680.6528 580.608C685.2608 576 687.5136 571.392 687.5136 566.8864c0-6.144-2.2528-10.6496-6.8608-13.7216L488.6528 384l192-169.1648c4.608-3.072 6.8608-7.5776 6.8608-13.7216 0-4.608-2.2528-9.1136-6.8608-13.7216L461.2096-13.7216C458.24-16.7936 454.4512-18.3296 449.8432-18.3296zM468.0704 726.8352l0-310.8864 173.6704 150.8352L468.0704 726.8352zM468.0704 352.0512l0-310.8864 173.6704 159.9488L468.0704 352.0512z"  horiz-adv-x="1024" />

    
    <glyph glyph-name="mediaprevious" unicode="&#59001;" d="M368.633054 384.086491 886.983222 15.408915 886.983222 755.39893 368.633054 384.086491 368.633054 384.086491ZM882.604932 875.650353C940.780017 917.173341 987.940243 893.123936 987.940243 821.766014L987.940243-52.452606C987.940243-123.735085 940.695386-147.799518 882.604932-106.336931L300.041815 309.472676C241.866731 350.995664 241.951362 418.378144 300.041815 459.840732L882.604932 875.650353 882.604932 875.650353ZM36.059757 840.057782C36.059757 867.752413 58.716488 890.203336 86.538267 890.203336 114.416784 890.203336 137.016778 867.750062 137.016778 840.057782L137.016778-77.854431C137.016778-105.549062 114.360047-128 86.538267-128 58.65975-128 36.059757-105.546711 36.059757-77.854431L36.059757 840.057782 36.059757 840.057782Z"  horiz-adv-x="1024" />

    
    <glyph glyph-name="saoma" unicode="&#58952;" d="M1012.622222 424.700587 34.133333 424.700587C15.291733 424.700587 0 409.408853 0 390.567253 0 371.725653 15.291733 356.43392 34.133333 356.43392L1012.622222 356.43392C1031.463822 356.43392 1046.755556 371.725653 1046.755556 390.567253 1046.755556 409.408853 1031.463822 424.700587 1012.622222 424.700587ZM259.934436 594.054258C241.092836 594.054258 225.801102 578.762524 225.801102 559.920924 225.801102 541.079324 241.092836 525.787591 259.934436 525.787591L786.816569 525.787591C805.658169 525.787591 820.949902 541.079324 820.949902 559.920924 820.949902 578.762524 805.658169 594.054258 786.816569 594.054258L259.934436 594.054258ZM786.82112 187.077973C805.66272 187.077973 820.954453 202.369707 820.954453 221.211307 820.954453 240.052907 805.66272 255.34464 786.82112 255.34464L259.938987 255.34464C241.097387 255.34464 225.805653 240.052907 225.805653 221.211307 225.805653 202.369707 241.097387 187.077973 259.938987 187.077973L786.82112 187.077973ZM692.733724 826.854969 934.306702 826.854969C948.278613 826.854969 959.656391 815.477191 959.656391 801.50528L959.656391 559.932302C959.656391 541.067947 974.948124 525.798969 993.789724 525.798969 1012.65408 525.798969 1027.923058 541.067947 1027.923058 559.932302L1027.923058 801.50528C1027.923058 853.11488 985.939058 895.121636 934.306702 895.121636L692.733724 895.121636C673.892124 895.121636 658.600391 879.829902 658.600391 860.988302 658.600391 842.146702 673.892124 826.854969 692.733724 826.854969ZM52.954453 526.677333C71.796053 526.677333 87.087787 541.969067 87.087787 560.810667L87.087787 802.383644C87.087787 816.355556 98.465564 827.733333 112.437476 827.733333L354.010453 827.733333C372.874809 827.733333 388.143787 843.025067 388.143787 861.866667 388.143787 880.731022 372.874809 896 354.010453 896L112.437476 896C60.827876 896 18.82112 854.016 18.82112 802.383644L18.82112 560.810667C18.82112 541.969067 34.112853 526.677333 52.954453 526.677333ZM993.801102 255.34464C974.959502 255.34464 959.667769 240.052907 959.667769 221.211307L959.667769-20.361671C959.667769-34.333582 948.289991-45.71136 934.31808-45.71136L692.745102-45.71136C673.880747-45.71136 658.611769-61.003093 658.611769-79.844693 658.611769-98.709049 673.880747-113.978027 692.745102-113.978027L934.31808-113.978027C985.92768-113.978027 1027.934436-71.994027 1027.934436-20.361671L1027.934436 221.211307C1027.934436 240.052907 1012.642702 255.34464 993.801102 255.34464ZM354.021831-45.722738 112.448853-45.722738C98.476942-45.722738 87.099164-34.34496 87.099164-20.373049L87.099164 221.199929C87.099164 240.064284 71.807431 255.333262 52.965831 255.333262 34.101476 255.333262 18.832498 240.064284 18.832498 221.199929L18.832498-20.373049C18.832498-71.982649 60.816498-113.989404 112.448853-113.989404L354.021831-113.989404C372.863431-113.989404 388.155164-98.697671 388.155164-79.856071 388.155164-61.014471 372.863431-45.722738 354.021831-45.722738Z"  horiz-adv-x="1047" />

    
    <glyph glyph-name="result1" unicode="&#58976;" d="M443.131 849.711h133.222v-114.029h-133.222v114.029zM942.712 849.711h-171.043v-114.029h99.916l0-741.186h-723.687v741.186h101.61v114.029h-172.736c-22.015 0-40.079-18.628-40.079-41.208v-886.827c0-22.58 18.064-41.208 40.079-41.208h865.376c22.015 0 40.079 18.628 40.079 41.208l-0 886.827c0.564 22.58-17.499 41.208-39.515 41.208zM381.601 893.742h-75.078c-10.161 0-18.064-6.774-18.064-15.806v-169.914c0-9.032 7.903-15.806 18.064-15.806h75.078c10.161 0 18.064 6.774 18.064 15.806v169.35c0 9.032-7.903 16.37-18.064 16.37zM713.526 893.742h-75.078c-10.161 0-18.064-6.774-18.064-15.806v-169.914c0-9.032 7.903-15.806 18.064-15.806h75.078c10.161 0 18.064 6.774 18.064 15.806l0 169.35c0.564 9.032-7.903 16.37-18.064 16.37zM794.814 441.014c-155.802-89.191-312.168-342.086-312.168-342.086-134.351 163.705-240.476 197.010-240.476 197.010l134.351 77.901c63.224-60.401 106.69-103.868 106.69-103.868 174.994 335.877 311.603 379.343 311.603 379.343v-208.3z"  horiz-adv-x="1024" />

    
    <glyph glyph-name="refresh" unicode="&#58934;" d="M918 193.2 918 193.2c45.6 98.8 52 206 26 303.6-30 112.4-104 212.8-211.6 273.6L780 872.8l-270.8-70.8 121.2-252.4 50 107.6c72.8-44.4 122.8-114.4 144-192.8 18.8-70.8 14.4-147.6-18.8-219.6-42-91.2-120.8-153.6-210.8-177.6-13.2-3.6-26.4-6-39.6-8l56-115.6c5.2 1.2 10.4 2.4 16 4C750.8-19.2 860 67.2 918 193.2L918 193.2M343.2 102.8c-74 44.4-124.8 114.8-146 194-18.8 70.8-14.4 147.6 18.8 219.6 42 91.2 120.8 153.6 210.8 177.6 14.8 4 30 6.8 45.6 8.8l-55.6 116c-7.2-1.6-14.8-3.2-22-5.2-124-33.2-233.6-119.6-291.2-245.6-45.6-98.8-52-206-26-303.2l0-0.4c30.4-113.2 105.2-214 213.6-274.8l-45.2-98 270.4 72-122 252L343.2 102.8 343.2 102.8M343.2 102.8 343.2 102.8z"  horiz-adv-x="1024" />

    
    <glyph glyph-name="examineandapprove" unicode="&#58960;" d="M664.5248 690.048 226.944 690.048c-10.5984 0-19.2-8.6016-19.2-19.2s8.6016-19.2 19.2-19.2l437.6064 0c10.5984 0 19.2 8.6016 19.2 19.2S675.1232 690.048 664.5248 690.048zM683.7248 533.248c0 10.5984-8.6016 19.2-19.2 19.2L226.944 552.448c-10.5984 0-19.2-8.6016-19.2-19.2s8.6016-19.2 19.2-19.2l437.6064 0C675.1232 514.048 683.7248 522.6496 683.7248 533.248zM226.9184 414.848c-10.5984 0-19.2-8.6016-19.2-19.2s8.6016-19.2 19.2-19.2l280.832 0c10.5984 0 19.2 8.6016 19.2 19.2s-8.6016 19.2-19.2 19.2L226.9184 414.848zM446.9248 277.248 226.9184 277.248c-10.5984 0-19.2-8.6016-19.2-19.2s8.6016-19.2 19.2-19.2l220.0064 0c10.5984 0 19.2 8.6016 19.2 19.2S457.5232 277.248 446.9248 277.248zM876.2624 81.2544l-49.152 0-95.9232 134.2208c39.4752 13.9008 67.9936 51.1744 67.9936 95.3344 0 55.9616-45.4912 101.4784-101.4528 101.4784s-101.4528-45.5168-101.4528-101.4784c0-44.16 28.544-81.4336 67.9936-95.3344l-95.9488-134.2208-49.1264 0c-24.704 0-44.8-20.096-44.8-44.8l0-72.1664c0-24.704 20.096-44.8 44.8-44.8l357.0432 0c24.704 0 44.8 20.096 44.8 44.8l0 72.1664C921.0624 61.1584 900.9664 81.2544 876.2624 81.2544zM634.6752 310.8096c0 34.7648 28.2624 63.0784 63.0528 63.0784s63.0528-28.288 63.0528-63.0784c0-34.56-27.9552-62.6688-62.464-63.0016-0.4096 0-0.768 0-1.1776 0C662.656 248.1408 634.6752 276.224 634.6752 310.8096zM691.84 187.9552l11.2896 0.7168 76.7744-107.4176-164.352 0L691.84 187.9552zM882.6624-35.7376c0-3.4816-2.9184-6.4-6.4-6.4L519.2192-42.1376c-3.4816 0-6.4 2.9184-6.4 6.4l0 72.1664c0 3.4816 2.9184 6.4 6.4 6.4l59.0336 0 239.0016 0 0.512 0 58.5216 0c3.4816 0 6.4-2.9184 6.4-6.4L882.688-35.7376zM136.5248 44.8 136.5248 796.8c0 3.4816 2.9184 6.4 6.4 6.4l611.2 0c3.4816 0 6.4-2.9184 6.4-6.4l0-361.1904c14.4128-7.2704 27.3664-16.9472 38.4-28.544L798.9248 796.8c0 24.704-20.096 44.8-44.8 44.8L142.9248 841.6c-24.704 0-44.8-20.096-44.8-44.8L98.1248 44.8c0-24.704 20.096-44.8 44.8-44.8l293.0688 0 0 36.4544c0 0.6656 0.1792 1.28 0.2048 1.9456L142.9248 38.4C139.4688 38.4 136.5248 41.3184 136.5248 44.8z"  horiz-adv-x="1024" />

    
    <glyph glyph-name="ok" unicode="&#58974;" d="M512 384m-448 0a448 448 0 1 1 896 0 448 448 0 1 1-896 0ZM738.133333 584.533333L448 294.4l-119.466667 119.466667-59.733333-59.733334 179.2-179.2 349.866667 349.866667z"  horiz-adv-x="1024" />

    
    <glyph glyph-name="previous" unicode="&#58985;" d="M659.2-21.333333l66.133333 66.133333L386.133333 384 725.333333 723.2 659.2 789.333333 256 384z"  horiz-adv-x="1024" />

    
    <glyph glyph-name="refresh1" unicode="&#58977;" d="M861.866667 631.466667c48.469333-69.802667 76.8-154.282667 76.8-247.466667 0-234.530133-191.0272-426.325333-426.666667-426.666667v-85.333333c282.769067 0 512 230.152533 512 512 0 103.995733-29.5424 198.997333-76.8 281.6v-8.533333c25.1648-1.928533 48.5376 11.639467 51.2 34.133333 9.5232 23.159467-3.976533 46.702933-25.6 51.2l-119.466667 34.133333c-8.413867 1.5872-19.950933-0.273067-25.6-8.533333-13.303467-2.696533-20.667733-11.8016-25.6-25.6l-25.6-110.933333c-9.540267-25.429333 3.968-48.896 25.6-51.2 23.850667-9.9328 47.291733 3.626667 51.2 25.6l8.533334 25.6zM162.133333 136.533333c-48.469333 69.802667-76.8 154.282667-76.8 247.466667 0 234.530133 191.0272 426.325333 426.666667 426.666667V896C229.230933 896 0 665.847467 0 384c0-103.995733 29.5424-198.997333 76.8-281.6v8.533333c-25.1648 1.928533-48.5376-11.639467-51.2-34.133333-9.5232-23.159467 3.976533-46.702933 25.6-51.2l119.466667-34.133333c8.413867-1.5872 19.950933 0.273067 25.6 8.533333 13.303467 2.696533 20.667733 11.8016 25.6 25.6l25.6 110.933333c9.540267 25.429333-3.968 48.896-25.6 51.2-23.850667 9.9328-47.291733-3.626667-51.2-25.6l-8.533334-25.6z"  horiz-adv-x="1024" />

    
    <glyph glyph-name="sure" unicode="&#58986;" d="M483.217067 310.9888L355.080533 439.125333a42.6752 42.6752 0 0 1-60.373333 0.034134 42.717867 42.717867 0 0 1 0.034133-60.373334l156.808534-156.808533a42.709333 42.709333 0 0 1 50.210133-7.569067 42.564267 42.564267 0 0 1 15.4624 9.898667l265.403733 265.403733a42.658133 42.658133 0 1 1-60.3392 60.3392L483.217067 310.9888zM512-128C229.666133-128 0 101.666133 0 384S229.666133 896 512 896s512-229.666133 512-512-229.666133-512-512-512z m0 938.666667c-235.264 0-426.666667-191.402667-426.666667-426.666667s191.402667-426.666667 426.666667-426.666667 426.666667 191.402667 426.666667 426.666667-191.402667 426.666667-426.666667 426.666667z"  horiz-adv-x="1024" />

    
    <glyph glyph-name="bluetooth2" unicode="&#58901;" d="M521.847 424.425l120.394 120.388-120.394 120.388zM521.847 81.075l120.394 120.388-120.394 120.389zM557.434 832.132h-90.868c-140.8 0-256-115.2-256-256v-383.69c0-140.8 115.2-256 256-256h90.868c140.8 0 256 115.2 256 256v383.69c0 140.8-115.2 256-256 256z m127.649-616.389c7.888-7.885 7.888-20.675 0-28.561l-169.151-169.15a20.183 20.183 0 0 0-22.013-4.378 20.196 20.196 0 0 0-12.465 18.659V326.906l-122.05-122.05a20.133 20.133 0 0 0-14.279-5.917 20.13 20.13 0 0 0-14.281 5.917c-7.89 7.884-7.89 20.675 0 28.56L473.09 375.663 335.894 512.86c-7.892 7.885-7.892 20.675 0 28.561 7.888 7.889 20.67 7.889 28.559 0L481.454 424.42V713.963a20.196 20.196 0 0 0 12.465 18.659 20.172 20.172 0 0 0 22.013-4.378l169.151-169.15c7.888-7.885 7.888-20.675 0-28.56L527.685 373.138l157.398-157.395z"  horiz-adv-x="1024" />

    
    <glyph glyph-name="refresh2" unicode="&#58906;" d="M697.21 713.633l-182.684-271.772 107.185 5.334c3.873-109.534 0.889-248.913-173.985-368.924-4.445-3.492-18.859-11.684-13.271-10.604 342.064 73.785 364.098 321.491 361.749 387.338l109.407 5.461-208.401 253.167zM337.43 62.080l182.811 271.708-107.312-5.27c-3.873 109.471-0.635 248.913 174.239 368.797 4.318 3.492 18.732 11.684 13.271 10.604-341.937-73.658-365.749-321.3-363.273-387.148l-108.137-5.334 208.401-253.357zM1015.78 387.888c0.061-2.927 0.095-6.377 0.095-9.835 0-280.482-227.376-507.858-507.858-507.858-280.482 0-507.858 227.376-507.858 507.858 0 3.458 0.035 6.909 0.103 10.35 5.512 275.704 230.731 497.507 507.754 497.507 277.024 0 502.243-221.803 507.754-497.507z"  horiz-adv-x="1024" />

    
    <glyph glyph-name="menu" unicode="&#59073;" d="M384 416H192c-52.8 0-96 43.2-96 96V704c0 52.8 43.2 96 96 96h192c52.8 0 96-43.2 96-96v-192c0-52.8-43.2-96-96-96zM192 736c-17.6 0-32-14.4-32-32v-192c0-17.6 14.4-32 32-32h192c17.6 0 32 14.4 32 32V704c0 17.6-14.4 32-32 32H192zM832 416H640c-52.8 0-96 43.2-96 96V704c0 52.8 43.2 96 96 96h192c52.8 0 96-43.2 96-96v-192c0-52.8-43.2-96-96-96zM640 736c-17.6 0-32-14.4-32-32v-192c0-17.6 14.4-32 32-32h192c17.6 0 32 14.4 32 32V704c0 17.6-14.4 32-32 32H640zM384-32H192c-52.8 0-96 43.2-96 96V256c0 52.8 43.2 96 96 96h192c52.8 0 96-43.2 96-96v-192c0-52.8-43.2-96-96-96zM192 288c-17.6 0-32-14.4-32-32v-192c0-17.6 14.4-32 32-32h192c17.6 0 32 14.4 32 32V256c0 17.6-14.4 32-32 32H192zM832-32H640c-52.8 0-96 43.2-96 96V256c0 52.8 43.2 96 96 96h192c52.8 0 96-43.2 96-96v-192c0-52.8-43.2-96-96-96zM640 288c-17.6 0-32-14.4-32-32v-192c0-17.6 14.4-32 32-32h192c17.6 0 32 14.4 32 32V256c0 17.6-14.4 32-32 32H640z"  horiz-adv-x="1024" />

    
    <glyph glyph-name="next" unicode="&#58891;" d="M745.47264-128c11.264 0 23.552 4.096 31.744 13.312L1244.16064 352.256a45.12 45.12 0 0 1 0 63.488L777.21664 882.688a45.12 45.12 0 0 1-63.488 0c-18.432-17.408-18.432-46.08 0-64.512L1147.90464 384 713.72864-50.176c-18.432-18.432-18.432-47.104 0-64.512 8.192-9.216 20.48-13.312 31.744-13.312zM45.05664 338.944h1102.848A45.44 45.44 0 0 1 1192.96064 384a44.8 44.8 0 0 1-45.056 45.056H45.05664A44.8 44.8 0 0 1 0.00064 384c0-24.576 20.48-45.056 45.056-45.056z"  horiz-adv-x="1257" />

    
    <glyph glyph-name="previous1" unicode="&#58892;" d="M512-128c-11.264 0-23.552 4.096-31.744 13.312L13.312 352.256a45.12 45.12 0 0 0 0 63.488L480.256 882.688a45.12 45.12 0 0 0 63.488 0c18.432-17.408 18.432-46.08 0-64.512L109.568 384l434.176-434.176c18.432-18.432 18.432-47.104 0-64.512-8.192-9.216-20.48-13.312-31.744-13.312z m700.416 466.944H109.568A45.44 45.44 0 0 0 64.512 384c0 25.6 20.48 45.056 45.056 45.056h1102.848A44.8 44.8 0 0 0 1257.472 384a45.44 45.44 0 0 0-45.056-45.056z"  horiz-adv-x="1257" />

    
    <glyph glyph-name="next1" unicode="&#58964;" d="M663.9 455.5l-427.9 349.3c-31.4 25.6-75.8 30.7-113.2 13-33.9-16.1-54.9-48.2-54.9-83.9v-700.2c0-35.7 21.1-67.9 55-84 14.8-7 30.7-10.4 46.4-10.4 24.1 0 47.9 8 66.8 23.6l427.9 351c21.8 17.9 34.2 43.7 34.2 70.9 0.1 27.1-12.5 52.9-34.3 70.7zM192.9 89v589.6l360.3-294.1-360.3-295.5zM891.3 827.7c-35.2 0-64-28.8-64-64v-759.1c0-35.2 28.8-64 64-64s64 28.8 64 64v759c0 35.2-28.8 64.1-64 64.1z"  horiz-adv-x="1024" />

    
    <glyph glyph-name="planetearth" unicode="&#58883;" d="M186.69568 586.01472a10.24 10.24 0 0 0 0.43008 10.48576 388.64896 388.64896 0 0 0 266.01472 171.2128 10.0352 10.0352 0 0 0 10.77248-5.7344 10.24 10.24 0 0 0-2.3552-11.9808c-51.17952-46.34624-92.8768-102.83008-120.58624-163.36896a10.28096 10.28096 0 0 0-9.3184-5.98016h-135.9872a10.24 10.24 0 0 0-8.97024 5.36576z m302.36672-30.76096h-126.73024a10.24 10.24 0 0 1-9.56416-6.59456 458.79296 458.79296 0 0 1-29.63456-141.23008 10.17856 10.17856 0 0 1 10.21952-10.752h155.72992a10.24 10.24 0 0 1 10.24 10.24v138.09664a10.26048 10.26048 0 0 1-10.26048 10.24z m4.1984 180.9408a10.21952 10.21952 0 0 1-10.97728-1.67936 476.99968 476.99968 0 0 1-108.544-138.93632 10.21952 10.21952 0 0 1 9.1136-14.92992h106.22976a10.24 10.24 0 0 1 10.24 10.24v135.96672a10.28096 10.28096 0 0 1-6.06208 9.33888z m-4.1984-548.864h-106.22976a10.24 10.24 0 0 1-9.1136-14.92992 477.0816 477.0816 0 0 1 108.544-138.93632 10.1376 10.1376 0 0 1 10.97728-1.65888 10.24 10.24 0 0 1 6.0416 9.33888v135.94624a10.21952 10.21952 0 0 1-10.21952 10.24z m-148.0704-5.98016a10.28096 10.28096 0 0 1-9.3184 5.98016h-135.9872a10.24 10.24 0 0 1-8.56064-15.85152 388.64896 388.64896 0 0 1 266.01472-171.2128 10.19904 10.19904 0 0 1 10.77248 5.7344 10.24 10.24 0 0 1-2.3552 11.9808c-51.15904 46.34624-92.85632 102.83008-120.56576 163.36896zM134.656 396.6976h152.76032c5.48864 0 9.97376 4.3008 10.21952 9.78944a487.95648 487.95648 0 0 0 25.43616 135.24992 10.24 10.24 0 0 1-9.68704 13.53728h-143.31904a10.24 10.24 0 0 1-9.25696-5.85728 383.85664 383.85664 0 0 1-36.352-141.84448 10.15808 10.15808 0 0 1 2.7648-7.63904 10.17856 10.17856 0 0 1 7.43424-3.23584z m548.352 189.93152c1.67936-3.64544 5.3248-5.98016 9.3184-5.98016h135.9872a10.24 10.24 0 0 1 8.56064 15.85152 388.64896 388.64896 0 0 1-266.01472 171.2128 10.0352 10.0352 0 0 1-10.77248-5.7344 10.24 10.24 0 0 1 2.3552-11.9808c51.15904-46.34624 92.85632-102.83008 120.56576-163.36896z m-361.30816-369.62304a10.17856 10.17856 0 0 1 1.37216 9.25696 486.48192 486.48192 0 0 0-25.43616 135.24992 10.24 10.24 0 0 1-10.21952 9.78944h-152.76032a10.24 10.24 0 0 1-10.21952-10.8544 383.93856 383.93856 0 0 1 36.352-141.84448 10.24 10.24 0 0 1 9.25696-5.85728h143.31904a10.11712 10.11712 0 0 1 8.33536 4.25984z m167.36256 154.27584h-155.72992a10.24 10.24 0 0 1-10.21952-10.752 458.79296 458.79296 0 0 1 29.63456-141.23008 10.24 10.24 0 0 1 9.56416-6.59456h126.73024a10.24 10.24 0 0 1 10.24 10.24v138.09664a10.19904 10.19904 0 0 1-10.21952 10.24z m400.2816 0h-152.76032a10.21952 10.21952 0 0 1-10.21952-9.78944 487.95648 487.95648 0 0 0-25.43616-135.24992 10.24 10.24 0 0 1 9.68704-13.53728h143.31904a10.24 10.24 0 0 1 9.25696 5.85728 383.85664 383.85664 0 0 1 36.352 141.84448 10.15808 10.15808 0 0 1-2.7648 7.63904 10.1376 10.1376 0 0 1-7.43424 3.23584z m-187.04384 179.69152a10.17856 10.17856 0 0 1-1.37216-9.25696 486.48192 486.48192 0 0 0 25.43616-135.24992 10.24 10.24 0 0 1 10.21952-9.78944h152.76032a10.24 10.24 0 0 1 10.21952 10.8544 383.93856 383.93856 0 0 1-36.352 141.84448 10.24 10.24 0 0 1-9.25696 5.85728h-143.31904a10.11712 10.11712 0 0 1-8.33536-4.25984z m125.99296-363.64288h-135.9872a10.28096 10.28096 0 0 1-9.3184-5.98016c-27.70944-60.53888-69.40672-117.02272-120.58624-163.36896a10.24 10.24 0 0 1 8.41728-17.7152 388.608 388.608 0 0 1 266.01472 171.2128 10.19904 10.19904 0 0 1-8.54016 15.85152zM534.9376 396.6976h155.72992a10.24 10.24 0 0 1 10.21952 10.752 458.79296 458.79296 0 0 1-29.63456 141.23008 10.24 10.24 0 0 1-9.56416 6.59456h-126.73024a10.24 10.24 0 0 1-10.24-10.24v-138.09664c-0.02048-5.67296 4.56704-10.24 10.21952-10.24z m0 183.95136h106.22976a10.24 10.24 0 0 1 9.1136 14.92992 476.73344 476.73344 0 0 1-108.544 138.93632 10.24 10.24 0 0 1-17.01888-7.65952v-135.96672c-0.02048-5.65248 4.56704-10.24 10.21952-10.24z m115.32288-408.24832a10.21952 10.21952 0 0 1-9.1136 14.92992h-106.22976a10.24 10.24 0 0 1-10.24-10.24v-135.94624a10.24 10.24 0 0 1 17.01888-7.68 476.79488 476.79488 0 0 1 108.56448 138.93632z m-115.32288 40.32512h126.73024a10.24 10.24 0 0 1 9.56416 6.59456 458.79296 458.79296 0 0 1 29.63456 141.23008 10.17856 10.17856 0 0 1-10.21952 10.752h-155.72992a10.24 10.24 0 0 1-10.24-10.24v-138.09664c0.02048-5.67296 4.608-10.24 10.26048-10.24z"  horiz-adv-x="1024" />

    
    <glyph glyph-name="choose_done_surface" unicode="&#59066;" d="M962.133333 386.133333c0-247.466667-200.533333-448-448-448s-448 200.533333-448 448 200.533333 448 448 448 448-200.533333 448-448z m-569.6-187.733333l349.866667 352c8.533333 8.533333 8.533333 21.333333 0 29.866667s-21.333333 8.533333-29.866667 0L379.733333 243.20000000000005l-128 147.2c-8.533333 8.533333-21.333333 10.666667-29.866666 2.133333-8.533333-8.533333-10.666667-21.333333-2.133334-29.866666l142.933334-164.266667c4.266667-4.266667 8.533333-6.4 14.933333-6.4 6.4 0 10.666667 2.133333 14.933333 6.4z"  horiz-adv-x="1024" />

    
    <glyph glyph-name="close_circle_surface" unicode="&#59070;" d="M512 832C264.554667 832 64 631.445333 64 384c0-247.424 200.554667-448 448-448s448 200.576 448 448c0 247.445333-200.554667 448-448 448z m180.992-598.848a21.312 21.312 0 1 0-30.165333-30.165333L512 353.834667l-150.826667-150.848a21.269333 21.269333 0 0 0-30.165333 0 21.312 21.312 0 0 0 0 30.165333L481.834667 384l-150.826667 150.848a21.312 21.312 0 1 0 30.165333 30.165333L512 414.165333l150.826667 150.826667a21.312 21.312 0 1 0 30.165333-30.165333L542.165333 384l150.826667-150.848z"  horiz-adv-x="1024" />

    
    <glyph glyph-name="bianji2" unicode="&#59007;" d="M802.714-10.739h-590.346c-54.338 0-98.39 44.082-98.39 98.452v590.737c0 54.378 44.698 103.115 99.039 103.115h396.155v-49.52h-396.155c-27.169 0-49.843-26.41-49.843-53.597v-590.736c0-27.185 22.026-49.228 49.194-49.228h590.346c27.168 0 54.050 22.623 54.050 49.81v396.153h49.52v-396.15c-0.002-54.372-49.23-99.036-103.57-99.036zM508.68 227.827c-7.192-7.199-16.2-10.798-25.486-12.607l-215.397-106.545c-24.242-11.257-43.659 10.484-34.725 34.748l106.475 215.542c1.805 9.292 5.404 18.303 12.597 25.501l382.652 382.904c19.211 19.227 50.36 19.227 69.57 0l86.965-87.023c19.214-19.222 19.214-50.395 0-69.618l-382.65-382.902zM280.182 173.193c-5.628-11.35 5.242-23.006 17.363-17.374l133.010 80.566-69.861 69.907-80.512-133.1zM404.32 332.253l52.182-52.216c9.603-9.612-15.222 15.233 17.39-17.402l278.294 278.475-87.586 86.403-277.67-277.855c9.24-9.244 7.785-7.794 17.392-17.404zM839.15 662.941l-52.179 52.217c-9.604 9.612-25.18 9.612-34.785 0l-50.935-50.965 85.717-88.27 52.182 52.216c9.607 9.61 9.607 25.19 0 34.802z"  horiz-adv-x="1024" />

    
    <glyph glyph-name="peer_surface" unicode="&#59236;" d="M744.533333 317.866667V725.333333c0 46.933333-38.4 85.333333-85.333333 85.333334H136.533333c-46.933333 0-85.333333-38.4-85.333333-85.333334v-409.6c0-46.933333 38.4-85.333333 85.333333-85.333333h6.4l76.8-96c4.266667-6.4 12.8-8.533333 19.2-8.533333s14.933333 4.266667 19.2 10.666666l76.8 96h324.266667c46.933333 0 85.333333 38.4 85.333333 85.333334z m-170.666666 262.4c-29.866667-72.533333-98.133333-117.333333-177.066667-117.333334-76.8 0-147.2 46.933333-177.066667 117.333334-4.266667 10.666667 0 23.466667 10.666667 27.733333 10.666667 4.266667 23.466667 0 27.733333-10.666667 23.466667-55.466667 76.8-91.733333 136.533334-91.733333 59.733333 0 113.066667 36.266667 136.533333 91.733333 4.266667 10.666667 17.066667 17.066667 27.733333 10.666667 14.933333-4.266667 19.2-14.933333 14.933334-27.733333zM908.8 475.733333H789.333333V256c0-34.133333-27.733333-64-64-64H448V108.79999999999995c0-40.533333 38.4-74.666667 85.333333-74.666667h219.733334l55.466666-70.4c4.266667-6.4 10.666667-8.533333 17.066667-8.533333h10.666667l61.866666 78.933333c40.533333 4.266667 70.4 40.533333 70.4 83.2V409.6c4.266667 36.266667-23.466667 66.133333-59.733333 66.133333z"  horiz-adv-x="1024" />

    
    <glyph glyph-name="zuoyejieguoduibi" unicode="&#58943;" d="M661.184 791.776H280.8a24.736 24.736 0 0 1-25.408-25.376v-279.136c0-13.952 10.72-25.408 25.408-25.408h380.352a25.664 25.664 0 0 1 25.408 25.408V766.4a25.28 25.28 0 0 1-25.376 25.376z m8.256-255.488c0-2.24 0-2.72-1.28-3.52L589.824 610.88s-24.128 23.936-47.552-13.632c-22.112-38.816-40.256-39.36-62.112-13.184L385.6 663.36s-22.144 29.12-47.552 0l-63.68-61.664V752c0 10.912 10.688 19.904 22.848 19.904h348.256c13.472 0 24.192-9.216 24.192-19.904l-0.224-215.712zM552.448 709.952a27.392 27.392 0 1 1 54.752 0 27.392 27.392 0 0 1-54.752 0M748.288 430.656c-153.152 0-277.28-124.096-277.28-277.248a277.28 277.28 0 1 1 277.28 277.248z m232.096-179.232c4.064-9.632 7.584-19.616 10.368-29.76l-229.568-229.504v45.44l217.568 217.568 1.632-3.744z m19.328-82.688l-238.496-238.496v44l233.184 233.12c2.752-12.672 4.512-25.536 5.312-38.624z m-238.496-113.248v46.688l194.336 194.432c6.464-9.376 12.352-19.136 17.472-29.248l-211.808-211.872z m0 173.152l131.36 131.328c9.12-6.4 17.824-13.376 26.016-20.864l-157.376-157.44v46.976z m0 17.856v40.736l94.208 94.24c9.024-4.288 17.92-9.056 26.368-14.432l-120.576-120.544z m0 58.688v45.088l47.776 47.712c11.52-2.816 22.88-6.528 33.952-11.008l-81.728-81.792z m0 62.976v36.832c11.168-0.544 22.144-1.856 32.928-3.808l-32.928-33.024z m0-455.84l238.976 238.944a251.584 251.584 0 0 0-6.048-52.928L803.36-92.48a258.656 258.656 0 0 0-42.112-5.632v10.432h-0.032z m186.816 394.624l-186.784-186.752v43.552l166.464 166.432c7.2-7.296 13.984-15.04 20.32-23.232z m-377.92-331.616a251.168 251.168 0 0 0-73.728 178.112 250.88 250.88 0 0 0 73.728 178.048 251.008 251.008 0 0 0 165.792 73.568v-503.2a251.264 251.264 0 0 0-85.696 19.424 252.256 252.256 0 0 0-80.096 54.048z m356.288 0a250.944 250.944 0 0 0-98.176-60.864l159.008 159.072a252.576 252.576 0 0 0-60.832-98.208zM470.24-66.752H56.512V834.752h810.24v-401.408h56.448V891.872H0.032v-1015.68H470.24v57.056zM94.304 275.872h238.368v-58.176H94.304v58.176zM94.304 160.448h294.592v-58.272H94.304v58.272zM94.304 391.264h334.4v-58.144H94.304v58.144zM94.304 44.928h129.28v-58.112h-129.28v58.112z"  horiz-adv-x="1025" />

    
    <glyph glyph-name="next2" unicode="&#58898;" d="M784.47 179.306h-526.06C115.924 179.306 0 295.228 0 437.714v51.002C0 631.202 115.924 747.126 258.41 747.126h198.698c15.916 0 28.822-12.906 28.822-28.822v-141.722c0-15.916-12.906-28.822-28.822-28.822h-198.698c-15.916 0-28.822 12.906-28.822 28.822 0 15.916 12.906 28.822 28.822 28.822h169.878v84.082h-169.878c-110.704 0-200.768-90.064-200.768-200.768v-51.002c0-110.702 90.064-200.766 200.768-200.766h526.058c15.916 0 28.822-12.906 28.822-28.822s-12.904-28.822-28.82-28.822zM492.738 321.028H258.41c-63.25 0-116.688 53.434-116.688 116.686v51.002c0 15.916 12.906 28.822 28.822 28.822s28.822-12.906 28.822-28.822v-51.002c0-31.452 27.59-59.042 59.046-59.042H492.74c15.916 0 28.822-12.906 28.822-28.822-0.004-15.916-12.91-28.822-28.824-28.822zM623.658 49.696l371.52 231.49-371.52 231.488zM623.658 20.874a28.82 28.82 0 0 0-28.822 28.82v462.98a28.822 28.822 0 0 0 44.062 24.46L1010.42 305.646a28.814 28.814 0 0 0 0-48.92L638.898 25.238a28.756 28.756 0 0 0-15.24-4.364z m28.82 439.886v-359.148l288.2 179.576-288.2 179.572z"  horiz-adv-x="1024" />

    
    <glyph glyph-name="juli" unicode="&#58998;" d="M971.434667 659.643733L778.615467 852.462933C739.8912 891.1872 696.661333 891.1872 670.0032 864.529067l-642.218667-642.218667a68.266667 68.266667 0 0 1 0-96.546133L220.6208-67.072a68.266667 68.266667 0 0 1 96.546133 0l642.218667 642.218667c26.641067 26.6752 26.641067 69.905067 12.049067 84.497066zM304.1792 16.503467a34.133333 34.133333 0 0 0-48.264533 0l-29.2864 29.2864a34.133333 34.133333 0 1 0 48.264533 48.264533l29.2864-29.2864a34.133333 34.133333 0 0 0 0-48.264533z m111.5648 111.5648a34.133333 34.133333 0 0 0-48.264533 0l-79.684267 79.684266a34.133333 34.133333 0 1 0 48.264533 48.264534l79.684267-79.684267a34.133333 34.133333 0 0 0 0-48.264533z m116.667733 116.667733a34.133333 34.133333 0 0 0-48.264533 0l-29.2864 29.2864a34.133333 34.133333 0 1 0 48.264533 48.264533l29.2864-29.2864a34.133333 34.133333 0 0 0 0-48.264533z m111.581867 111.581867a34.133333 34.133333 0 0 0-48.264533 0l-79.684267 79.684266a34.133333 34.133333 0 1 0 48.264533 48.264534l79.684267-79.684267a34.133333 34.133333 0 0 0 0-48.264533z m120.251733 120.2688a34.133333 34.133333 0 0 0-48.264533 0l-29.2864 29.2864a34.133333 34.133333 0 1 0 48.264533 48.264533l29.2864-29.2864a34.133333 34.133333 0 0 0 0-48.264533z m111.581867 111.5648a34.133333 34.133333 0 0 0-48.264533 0l-79.684267 79.684266a34.133333 34.133333 0 1 0 48.264533 48.264534l79.684267-79.684267a34.133333 34.133333 0 0 0 0-48.264533zM957.934933 476.450133L424.516267-56.968533c-21.504-21.504-6.280533-58.2656 24.132266-58.2656h499.285334a68.266667 68.266667 0 0 1 68.266666 68.266666V452.317867c0 30.4128-36.7616 45.636267-58.2656 24.132266z m-44.1344-455.150933a34.133333 34.133333 0 0 0-34.133333-34.133333H654.677333c-15.2064 0-22.818133 18.3808-12.066133 29.1328l242.0736 242.0736c10.752 10.752 29.1328 3.140267 29.1328-12.066134v-225.006933z"  horiz-adv-x="1024" />

    
    <glyph glyph-name="yiqishuaxinsvg" unicode="&#58893;" d="M549.6 172c0-79 64-143 143-143s143 64 143 143-64 143-143 143-143-64-143-143zM529.6 182c0-79 64-143 143-143s143 64 143 143-64 143-143 143-143-64-143-143zM666.9 724.8c-183.2 5.4-193.3 5.4-370.7 0.9-11.5-0.3-64.8-11.1-90.3-53.2h562.8c-14.2 33.4-97.3 52.2-101.8 52.3zM202.4 650h570v-54h-570zM765.5 573.4H206.3c8.4-14.6 30.3-24.4 46.8-56.9C263.2 496.7 268 442 268 442c0-7.2 4.5-13.1 10.1-13.1L429 415.8v-15h114v15L693.8 429c5.5 0 10.1 5.9 10.1 13.1 0 0 4.8 54.7 14.9 74.5 16.4 32.4 38.3 42.2 46.7 56.8zM610.6 456.5c0-6.9-4.6-12.4-10.3-12.4H371.5c-5.7 0-10.3 5.6-10.3 12.4v74.4c0 6.9 4.6 12.4 10.3 12.4h228.9c5.7 0 10.3-5.6 10.3-12.4v-74.4zM379 524.4V463h213.8v61.5H379z m36.4-51.4c-11.3 0-20.5 9.3-20.5 20.7s9.2 20.7 20.5 20.7 20.5-9.3 20.5-20.7-9.2-20.7-20.5-20.7z m70.5 0c-11.3 0-20.5 9.3-20.5 20.7s9.2 20.7 20.5 20.7 20.5-9.3 20.5-20.7-9.2-20.7-20.5-20.7z m70.5 0c-11.3 0-20.5 9.3-20.5 20.7s9.2 20.7 20.5 20.7 20.5-9.3 20.5-20.7-9.1-20.7-20.5-20.7zM520.3 86.7L486.1 29l-31.6 57.7V411.8h65.8zM652.9 734.8c-183.2 5.4-193.3 5.4-370.7 0.9-11.5-0.3-64.8-11.1-90.3-53.2h562.8c-14.2 33.4-97.3 52.2-101.8 52.3zM188.4 660h570v-54h-570zM751.5 583.4H192.3c8.4-14.6 30.3-24.4 46.8-56.9C249.2 506.7 254 452 254 452c0-7.2 4.5-13.1 10.1-13.1L415 425.8v-15h114v15L679.8 439c5.5 0 10.1 5.9 10.1 13.1 0 0 4.8 54.7 14.9 74.5 16.4 32.4 38.3 42.2 46.7 56.8zM596.6 466.5c0-6.9-4.6-12.4-10.3-12.4H357.5c-5.7 0-10.3 5.6-10.3 12.4v74.4c0 6.9 4.6 12.4 10.3 12.4h228.9c5.7 0 10.3-5.6 10.3-12.4v-74.4zM365 534.4V473h213.8v61.5H365z m36.4-51.4c-11.3 0-20.5 9.3-20.5 20.7 0 11.4 9.2 20.7 20.5 20.7s20.5-9.3 20.5-20.7c-0.1-11.5-9.2-20.7-20.5-20.7z m70.5 0c-11.3 0-20.5 9.3-20.5 20.7 0 11.4 9.2 20.7 20.5 20.7s20.5-9.3 20.5-20.7c0-11.4-9.2-20.7-20.5-20.7z m70.5 0c-11.3 0-20.5 9.3-20.5 20.7 0 11.4 9.2 20.7 20.5 20.7s20.5-9.3 20.5-20.7c0-11.4-9.1-20.7-20.5-20.7zM506.3 96.7L472.1 39l-31.6 57.7V421.8h65.8zM618.4 127.6l-35.7 44.5c-3.7 3.7-1.2 8.7 3.7 8.7h14.9c0 16.1 7.4 75.2 94.9 88.9 1.2 0 2.5-1.2 1.2-2.5-46.8-27.1-46.8-60.6-46.8-86.4h14.9c3.7 0 6.2-5 3.7-8.7l-35.7-44.5c-3.9-5-11.4-5-15.1 0zM772.6 183.2h-14.9c0-16.1-7.4-75.2-94.9-88.9-1.2 0-2.5 1.2-1.2 2.5 46.8 27.1 46.8 60.6 46.8 86.4h-13.6c-3.7 0-6.2 5-3.7 8.7l35.7 44.5c3.7 5 11.2 5 14.9 0l35.7-44.5c2.4-3.7 0.1-8.7-4.8-8.7zM604.4 127.6l-35.7 44.5c-3.7 3.7-1.2 8.7 3.7 8.7h14.9c0 16.1 7.4 75.2 94.9 88.9 1.2 0 2.5-1.2 1.2-2.5-46.8-27.1-46.8-60.6-46.8-86.4h14.9c3.7 0 6.2-5 3.7-8.7l-35.7-44.5c-3.9-5-11.4-5-15.1 0zM758.6 183.2h-14.9c0-16.1-7.4-75.2-94.9-88.9-1.2 0-2.5 1.2-1.2 2.5 46.8 27.1 46.8 60.6 46.8 86.4h-13.6c-3.7 0-6.2 5-3.7 8.7l35.7 44.5c3.7 5 11.2 5 14.9 0l35.7-44.5c2.4-3.7 0.1-8.7-4.8-8.7z"  horiz-adv-x="1024" />

    
    <glyph glyph-name="yiqishezhi" unicode="&#58895;" d="M146.6 537.3c-16 0.5-16.9 0.5-32.5 0.1-1 0-5.7-1-7.9-4.7h49.3c-1.3 2.9-8.5 4.6-8.9 4.6zM105.9 530.7h49.9v-4.7h-49.9zM155.2 524h-49c0.7-1.3 2.6-2.1 4.1-5 0.9-1.7 1.3-6.5 1.3-6.5 0-0.6 0.4-1.1 0.9-1.1l13.2-1.1v-1.3h10v1.3l13.2 1.1c0.5 0 0.9 0.5 0.9 1.1 0 0 0.4 4.8 1.3 6.5 1.5 2.9 3.4 3.7 4.1 5z m-13.6-10.3c0-0.6-0.4-1.1-0.9-1.1h-20c-0.5 0-0.9 0.5-0.9 1.1v6.5c0 0.6 0.4 1.1 0.9 1.1h20c0.5 0 0.9-0.5 0.9-1.1v-6.5zM121.4 519.7v-5.4h18.7v5.4h-18.7z m3.1-4.5c-1 0-1.8 0.8-1.8 1.8s0.8 1.8 1.8 1.8 1.8-0.8 1.8-1.8-0.8-1.8-1.8-1.8z m6.2 0c-1 0-1.8 0.8-1.8 1.8s0.8 1.8 1.8 1.8 1.8-0.8 1.8-1.8-0.8-1.8-1.8-1.8z m6.2 0c-1 0-1.8 0.8-1.8 1.8s0.8 1.8 1.8 1.8 1.8-0.8 1.8-1.8-0.8-1.8-1.8-1.8zM133.7 481.3l-3-5.1-2.7 5.1v28.5h5.7zM805.9 194.2c-3.7 1.1-6.7 4-7.8 7.7-2 6.4-4.6 12.7-7.7 18.6-1.8 3.4-1.8 7.6 0.1 11 6 11 9.9 19.7 12.1 25.1l-22.7 22.7c-5.4-2.3-14.1-6.2-25.1-12.2-3.4-1.9-7.6-1.9-11-0.1-6 3.1-12.2 5.7-18.6 7.7-3.7 1.2-6.6 4.1-7.7 7.8-3.5 12-6.9 20.9-9.1 26.3h-32.1c-2.2-5.4-5.6-14.3-9.1-26.2-1.1-3.8-4-6.8-7.8-8-6.4-2-12.7-4.6-18.6-7.7-3.4-1.8-7.6-1.8-11 0.1-11 6-19.7 9.9-25.1 12.1L582 256.4c2.3-5.4 6.2-14.1 12.2-25.1 1.9-3.4 1.9-7.6 0.1-11-3.1-6-5.7-12.2-7.7-18.6-1.2-3.7-4.1-6.6-7.8-7.7-12-3.5-20.9-6.9-26.3-9.1v-32.1c5.4-2.2 14.2-5.5 26.1-9.1 4-1.1 7-4.2 8.2-8.1 2-6.2 4.5-12.3 7.5-18.1 2-3.6 2-8-0.1-11.5-5.9-10.8-9.7-19.4-12-24.8l22.7-22.7c5.4 2.3 14.1 6.2 25.1 12.2 1.7 0.9 3.6 1.4 5.6 1.4 1.9 0 3.8-0.5 5.4-1.3 6-3.1 12.2-5.7 18.6-7.7 3.7-1.2 6.6-4.1 7.7-7.8 3.6-12 6.9-20.9 9.1-26.3h32.1c2.2 5.4 5.6 14.4 9.1 26.3 1.1 3.7 4 6.7 7.7 7.8 6.4 2 12.7 4.6 18.6 7.7 3.4 1.8 7.6 1.8 11-0.1 11-6 19.7-9.9 25.1-12.1l22.7 22.7c-2.3 5.4-6.2 14.1-12.2 25.1-1.9 3.4-1.9 7.6-0.1 11 3.1 6 5.7 12.2 7.7 18.6 1.2 3.7 4.1 6.6 7.8 7.7 12 3.6 20.9 6.9 26.3 9.1v32.1c-5.4 2.4-14.3 5.8-26.3 9.3z m-113.7-71.9c-25.8 0-46.7 20.9-46.7 46.7 0 25.8 20.9 46.7 46.7 46.7 25.8 0 46.6-20.9 46.7-46.7 0-25.8-20.9-46.7-46.7-46.7zM787.3 194.2c-3.7 1.1-6.7 4-7.8 7.7-2 6.4-4.6 12.7-7.7 18.6-1.8 3.4-1.8 7.6 0.1 11 6 11 9.9 19.7 12.1 25.1l-22.7 22.7c-5.4-2.3-14.1-6.2-25.1-12.2-3.4-1.9-7.6-1.9-11-0.1-6 3.1-12.2 5.7-18.6 7.7-3.7 1.2-6.6 4.1-7.7 7.8-3.5 12-6.9 20.9-9.1 26.3h-32.1c-2.2-5.4-5.6-14.3-9.1-26.2-1.1-3.8-4-6.8-7.8-8-6.4-2-12.7-4.6-18.6-7.7-3.4-1.8-7.6-1.8-11 0.1-11 6-19.7 9.9-25.1 12.1l-22.7-22.7c2.3-5.4 6.2-14.1 12.2-25.1 1.9-3.4 1.9-7.6 0.1-11-3.1-6-5.7-12.2-7.7-18.6-1.2-3.7-4.1-6.6-7.8-7.7-12-3.5-20.9-6.9-26.3-9.1v-32.1c5.4-2.2 14.2-5.5 26.1-9.1 4-1.1 7-4.2 8.2-8.1 2-6.2 4.5-12.3 7.5-18.1 2-3.6 2-8-0.1-11.5-5.9-10.8-9.7-19.4-12-24.8l22.7-22.7c5.4 2.3 14.1 6.2 25.1 12.2 1.7 0.9 3.6 1.4 5.6 1.4 1.9 0 3.8-0.5 5.4-1.3 6-3.1 12.2-5.7 18.6-7.7 3.7-1.2 6.6-4.1 7.7-7.8 3.6-12 6.9-20.9 9.1-26.3h32.1c2.2 5.4 5.6 14.4 9.1 26.3 1.1 3.7 4 6.7 7.7 7.8 6.4 2 12.7 4.6 18.6 7.7 3.4 1.8 7.6 1.8 11-0.1 11-6 19.7-9.9 25.1-12.1l22.7 22.7c-2.3 5.4-6.2 14.1-12.2 25.1-1.9 3.4-1.9 7.6-0.1 11 3.1 6 5.7 12.2 7.7 18.6 1.2 3.7 4.1 6.6 7.8 7.7 12 3.6 20.9 6.9 26.3 9.1v32.1c-5.4 2.4-14.4 5.8-26.3 9.3z m-113.7-71.9c-25.8 0-46.7 20.9-46.7 46.7 0 25.8 20.9 46.7 46.7 46.7 25.8 0 46.6-20.9 46.7-46.7 0-25.8-20.9-46.7-46.7-46.7zM670.3 724.8c-183.2 5.4-193.3 5.4-370.7 0.9-11.5-0.3-64.8-11.1-90.3-53.2h562.8c-14.2 33.4-97.3 52.2-101.8 52.3zM205.7 650h570v-54h-570zM768.9 573.4H209.7c8.4-14.6 30.3-24.4 46.8-56.9 10.1-19.8 14.9-74.5 14.9-74.5 0-7.2 4.5-13.1 10.1-13.1l150.9-13.1v-15h114v15L697.2 429c5.5 0 10.1 5.9 10.1 13.1 0 0 4.8 54.7 14.9 74.5 16.4 32.4 38.3 42.2 46.7 56.8zM614 456.5c0-6.9-4.6-12.4-10.3-12.4H374.8c-5.7 0-10.3 5.6-10.3 12.4v74.4c0 6.9 4.6 12.4 10.3 12.4h228.9c5.7 0 10.3-5.6 10.3-12.4v-74.4zM382.4 524.4V463h213.8v61.5H382.4z m36.3-51.4c-11.3 0-20.5 9.3-20.5 20.7s9.2 20.7 20.5 20.7 20.5-9.3 20.5-20.7S430 473 418.7 473z m70.6 0c-11.3 0-20.5 9.3-20.5 20.7s9.2 20.7 20.5 20.7 20.5-9.3 20.5-20.7-9.2-20.7-20.5-20.7z m70.5 0c-11.3 0-20.5 9.3-20.5 20.7s9.2 20.7 20.5 20.7 20.5-9.3 20.5-20.7-9.2-20.7-20.5-20.7zM523.6 86.7L489.5 29l-31.6 57.7V411.8h65.7zM656.3 734.8c-183.2 5.4-193.3 5.4-370.7 0.9-11.5-0.3-64.8-11.1-90.3-53.2h562.8c-14.2 33.4-97.3 52.2-101.8 52.3zM191.7 660h570v-54h-570zM754.9 583.4H195.7c8.4-14.6 30.3-24.4 46.8-56.9 10.1-19.8 14.9-74.5 14.9-74.5 0-7.2 4.5-13.1 10.1-13.1l150.9-13.1v-15h114v15L683.2 439c5.5 0 10.1 5.9 10.1 13.1 0 0 4.8 54.7 14.9 74.5 16.4 32.4 38.3 42.2 46.7 56.8zM600 466.5c0-6.9-4.6-12.4-10.3-12.4H360.8c-5.7 0-10.3 5.6-10.3 12.4v74.4c0 6.9 4.6 12.4 10.3 12.4h228.9c5.7 0 10.3-5.6 10.3-12.4v-74.4zM368.4 534.4V473h213.8v61.5H368.4z m36.3-51.4c-11.3 0-20.5 9.3-20.5 20.7 0 11.4 9.2 20.7 20.5 20.7s20.5-9.3 20.5-20.7c0-11.5-9.2-20.7-20.5-20.7z m70.6 0c-11.3 0-20.5 9.3-20.5 20.7 0 11.4 9.2 20.7 20.5 20.7s20.5-9.3 20.5-20.7c0-11.4-9.2-20.7-20.5-20.7z m70.5 0c-11.3 0-20.5 9.3-20.5 20.7 0 11.4 9.2 20.7 20.5 20.7s20.5-9.3 20.5-20.7c0-11.4-9.2-20.7-20.5-20.7zM509.6 96.7L475.5 39l-31.6 57.7V421.8h65.7z"  horiz-adv-x="1024" />

    
    <glyph glyph-name="yiqixinxisvg" unicode="&#58896;" d="M549.6 172c0-79 64-143 143-143s143 64 143 143-64 143-143 143-143-64-143-143zM529.6 182c0-79 64-143 143-143s143 64 143 143-64 143-143 143-143-64-143-143zM677.6 247.9m-28 0a28 28 0 1 1 56 0 28 28 0 1 1-56 0ZM682.6 78.1h-10c-11 0-20 9-20 20v82c0 11 9 20 20 20h10c11 0 20-9 20-20v-82c0-11-9-20-20-20zM667.6 257.9m-28 0a28 28 0 1 1 56 0 28 28 0 1 1-56 0ZM672.6 88.1h-10c-11 0-20 9-20 20v82c0 11 9 20 20 20h10c11 0 20-9 20-20v-82c0-11-9-20-20-20zM666.9 724.8c-183.2 5.4-193.3 5.4-370.7 0.9-11.5-0.3-64.8-11.1-90.3-53.2h562.8c-14.2 33.4-97.3 52.2-101.8 52.3zM202.4 650h570v-54h-570zM765.5 573.4H206.3c8.4-14.6 30.3-24.4 46.8-56.9C263.2 496.7 268 442 268 442c0-7.2 4.5-13.1 10.1-13.1L429 415.8v-15h114v15L693.8 429c5.5 0 10.1 5.9 10.1 13.1 0 0 4.8 54.7 14.9 74.5 16.4 32.4 38.3 42.2 46.7 56.8zM610.6 456.5c0-6.9-4.6-12.4-10.3-12.4H371.5c-5.7 0-10.3 5.6-10.3 12.4v74.4c0 6.9 4.6 12.4 10.3 12.4h228.9c5.7 0 10.3-5.6 10.3-12.4v-74.4zM379 524.4V463h213.8v61.5H379z m36.4-51.4c-11.3 0-20.5 9.3-20.5 20.7s9.2 20.7 20.5 20.7 20.5-9.3 20.5-20.7-9.2-20.7-20.5-20.7z m70.5 0c-11.3 0-20.5 9.3-20.5 20.7s9.2 20.7 20.5 20.7 20.5-9.3 20.5-20.7-9.2-20.7-20.5-20.7z m70.5 0c-11.3 0-20.5 9.3-20.5 20.7s9.2 20.7 20.5 20.7 20.5-9.3 20.5-20.7-9.1-20.7-20.5-20.7zM520.3 86.7L486.1 29l-31.6 57.7V411.8h65.8zM652.9 734.8c-183.2 5.4-193.3 5.4-370.7 0.9-11.5-0.3-64.8-11.1-90.3-53.2h562.8c-14.2 33.4-97.3 52.2-101.8 52.3zM188.4 660h570v-54h-570zM751.5 583.4H192.3c8.4-14.6 30.3-24.4 46.8-56.9C249.2 506.7 254 452 254 452c0-7.2 4.5-13.1 10.1-13.1L415 425.8v-15h114v15L679.8 439c5.5 0 10.1 5.9 10.1 13.1 0 0 4.8 54.7 14.9 74.5 16.4 32.4 38.3 42.2 46.7 56.8zM596.6 466.5c0-6.9-4.6-12.4-10.3-12.4H357.5c-5.7 0-10.3 5.6-10.3 12.4v74.4c0 6.9 4.6 12.4 10.3 12.4h228.9c5.7 0 10.3-5.6 10.3-12.4v-74.4zM365 534.4V473h213.8v61.5H365z m36.4-51.4c-11.3 0-20.5 9.3-20.5 20.7 0 11.4 9.2 20.7 20.5 20.7s20.5-9.3 20.5-20.7c-0.1-11.5-9.2-20.7-20.5-20.7z m70.5 0c-11.3 0-20.5 9.3-20.5 20.7 0 11.4 9.2 20.7 20.5 20.7s20.5-9.3 20.5-20.7c0-11.4-9.2-20.7-20.5-20.7z m70.5 0c-11.3 0-20.5 9.3-20.5 20.7 0 11.4 9.2 20.7 20.5 20.7s20.5-9.3 20.5-20.7c0-11.4-9.1-20.7-20.5-20.7zM506.3 96.7L472.1 39l-31.6 57.7V421.8h65.8z"  horiz-adv-x="1024" />

    
    <glyph glyph-name="yiqizhuce" unicode="&#58897;" d="M703.2 484.4c-225.8 6.7-238.2 6.7-456.7 1.1-14.1-0.4-79.9-13.7-111.3-65.8h693.5c-17.6 41.3-120 64.5-125.5 64.7zM130.8 391.9h702.4v-66.8H130.8zM824.7 297.3h-689c10.3-18.1 37.3-30.2 57.6-70.3 12.4-24.5 18.3-92.1 18.3-92.1 0-8.9 5.6-16.2 12.4-16.2l185.9-16.2V84h140.5v18.5l185.9 16.2c6.8 0 12.4 7.3 12.4 16.2 0 0 5.9 67.6 18.3 92.1 20.4 40 47.4 52.2 57.7 70.3zM633.8 152.7c0-8.5-5.7-15.4-12.6-15.4h-282c-7 0-12.6 6.9-12.6 15.4v92c0 8.5 5.7 15.4 12.6 15.4h282c7 0 12.6-6.9 12.6-15.4v-92zM348.5 236.7v-76h263.4v76H348.5z m44.8-63.6c-13.9 0-25.2 11.5-25.2 25.6s11.3 25.6 25.2 25.6 25.2-11.5 25.2-25.6-11.3-25.6-25.2-25.6z m86.9 0c-13.9 0-25.2 11.5-25.2 25.6s11.3 25.6 25.2 25.6 25.2-11.5 25.2-25.6-11.3-25.6-25.2-25.6z m86.9 0c-13.9 0-25.2 11.5-25.2 25.6s11.3 25.6 25.2 25.6 25.2-11.5 25.2-25.6-11.3-25.6-25.2-25.6zM703.2 497.5c-225.8 6.7-238.2 6.7-456.7 1.1-14.1-0.4-79.9-13.7-111.3-65.8h693.5c-17.6 41.3-120 64.5-125.5 64.7zM130.8 405h702.4v-66.8H130.8zM824.7 310.3h-689c10.3-18.1 37.3-30.2 57.6-70.3 12.4-24.5 18.3-92.1 18.3-92.1 0-8.9 5.6-16.2 12.4-16.2l185.9-16.2V97h140.5v18.5l185.9 16.2c6.8 0 12.4 7.3 12.4 16.2 0 0 5.9 67.6 18.3 92.1 20.4 40.1 47.4 52.3 57.7 70.3zM633.8 165.8c0-8.5-5.7-15.4-12.6-15.4h-282c-7 0-12.6 6.9-12.6 15.4v92c0 8.5 5.7 15.4 12.6 15.4h282c7 0 12.6-6.9 12.6-15.4v-92zM348.5 249.8v-76h263.4v76H348.5z m44.8-63.6c-13.9 0-25.2 11.5-25.2 25.6s11.3 25.6 25.2 25.6 25.2-11.5 25.2-25.6-11.3-25.6-25.2-25.6z m86.9 0c-13.9 0-25.2 11.5-25.2 25.6 0 14.1 11.3 25.6 25.2 25.6s25.2-11.5 25.2-25.6c0-14.1-11.3-25.6-25.2-25.6z m86.9 0c-13.9 0-25.2 11.5-25.2 25.6 0 14.1 11.3 25.6 25.2 25.6s25.2-11.5 25.2-25.6c0-14.1-11.3-25.6-25.2-25.6zM802.6 381.3H445.2c-16.9 0-30.6 13.7-30.6 30.6v231c0 16.9 13.7 30.6 30.6 30.6h357.4c16.9 0 30.6-13.7 30.6-30.6v-231c0-16.9-13.8-30.6-30.6-30.6zM445.2 654.4M781.6 391.8H424.2c-16.9 0-30.6 13.7-30.6 30.6v231c0 16.9 13.7 30.6 30.6 30.6h357.4c16.9 0 30.6-13.7 30.6-30.6v-231c0-16.9-13.7-30.6-30.6-30.6z m-357.4 273M529 428c-29.3 0-50 1.4-65 4.5-9.8 2-17.2 4.8-22.7 8.4-9.7 6.4-11.7 14.4-11.7 20 0 21.7 30.6 44.6 69.9 52.5 1 1 2 3.5 2.4 5.5-1.6 1.2-2.9 2.9-3.6 4.8-2.9 5.8-5.5 10.4-7.8 14.4-6.1 10.7-10.9 19.2-10.9 34.5 0 15.9 4.9 29.5 14.3 39.4 9 9.5 21.4 14.7 35.1 14.7 13.7 0 26.2-5.4 35.2-15.3 9.3-10.1 14.2-23.8 14.2-39.7 0-20.4-8.1-41-21.2-53.7-1.1-1.2-1.5-2.4-1.1-3.6 0.2-0.7 0.7-1.5 1.6-1.8 18.3-3.6 35.5-10.5 48.6-19.6 14.3-10 22.2-21.5 22.2-32.6 0-5.6-2-13.7-11.7-20-5.5-3.6-12.9-6.3-22.7-8.2-15-2.8-35.6-4.2-65.1-4.2z m-12.3 106.9c3.3-2 5.8-5.7 6.5-11.1 1.1-9.7-4.6-25-16.5-27.8-0.1 0-0.2-0.1-0.4-0.1-32.8-6.3-49.7-23.6-49.7-29.5 0-1 3-4.6 16.3-7.3 12.4-2.5 30.6-3.8 55.9-3.8 25.8 0 43.6 1.2 56 3.6 13.3 2.7 16.3 6.1 16.3 7.1 0 2-2.5 7.5-12.2 14.1-9.9 6.9-23.3 12.2-37.7 14.9-0.1 0-0.3 0.1-0.4 0.1-7.4 1.8-13.4 7.5-15.5 14.9-2.3 7.7-0.2 16 5.7 22.1l0.3 0.3c8.4 8.1 13.8 22 13.8 35.6 0 18.7-10.5 31.3-26.2 31.3-15.9 0-26.2-12-26.2-30.5 0-9 2.4-13.1 7.5-22.2 1.9-3.1 4.1-7 6.5-11.7z m0 0M784.1 554.6H643c-7.3 0-13.2 6.1-13.2 13.6s5.9 13.6 13.2 13.6h141c7.3 0 13.2-6.1 13.2-13.6 0.1-7.5-5.8-13.6-13.1-13.6z m0 0M784.1 473H643c-7.3 0-13.2 6.1-13.2 13.6s5.9 13.6 13.2 13.6h141c7.3 0 13.2-6.1 13.2-13.6 0.1-7.5-5.8-13.6-13.1-13.6z m0 0M518.5 438.5c-29.3 0-50 1.4-65 4.5-9.8 2-17.2 4.8-22.7 8.4-9.7 6.4-11.7 14.4-11.7 20 0 21.7 30.6 44.6 69.9 52.5 1 1 2 3.5 2.4 5.5-1.6 1.2-2.9 2.9-3.6 4.8-2.9 5.8-5.5 10.4-7.8 14.4-6.1 10.7-10.9 19.2-10.9 34.5 0 15.9 4.9 29.5 14.3 39.4 9 9.5 21.4 14.7 35.1 14.7 13.7 0 26.2-5.4 35.2-15.3 9.3-10.1 14.2-23.8 14.2-39.7 0-20.4-8.1-41-21.2-53.7-1.1-1.2-1.5-2.4-1.1-3.6 0.2-0.7 0.7-1.5 1.6-1.8 18.3-3.6 35.5-10.5 48.6-19.6 14.3-10 22.2-21.5 22.2-32.6 0-5.6-2-13.7-11.7-20-5.5-3.6-12.9-6.3-22.7-8.2-15-2.8-35.6-4.2-65.1-4.2z m-12.2 106.9c3.3-2 5.8-5.7 6.5-11.1 1.1-9.7-4.6-25-16.5-27.8-0.1 0-0.2-0.1-0.4-0.1-32.8-6.3-49.7-23.6-49.7-29.5 0-1 3-4.6 16.3-7.3 12.4-2.5 30.6-3.8 55.9-3.8 25.8 0 43.6 1.2 56 3.6 13.3 2.7 16.3 6.1 16.3 7.1 0 2-2.5 7.5-12.2 14.1-9.9 6.9-23.3 12.2-37.7 14.9-0.1 0-0.3 0.1-0.4 0.1-7.4 1.8-13.4 7.5-15.5 14.9-2.3 7.7-0.2 16 5.7 22.1l0.3 0.3c8.4 8.1 13.8 22 13.8 35.6 0 18.7-10.5 31.3-26.2 31.3-15.9 0-26.2-12-26.2-30.5 0-9 2.4-13.1 7.5-22.2 1.8-3.1 4.1-7 6.5-11.7z m0 0M773.6 565.1h-141c-7.3 0-13.2 6.1-13.2 13.6s5.9 13.6 13.2 13.6h141c7.3 0 13.2-6.1 13.2-13.6s-5.9-13.6-13.2-13.6z m0 0M773.6 483.5h-141c-7.3 0-13.2 6.1-13.2 13.6s5.9 13.6 13.2 13.6h141c7.3 0 13.2-6.1 13.2-13.6s-5.9-13.6-13.2-13.6z m0 0"  horiz-adv-x="1024" />

    
    <glyph glyph-name="cansaitubiaozhuanqu-" unicode="&#58884;" d="M664.128 19.119l-465.178 0.035c-1.073 0-2.141 0.145-3.176 0.429-0.826 0.227-20.421 5.771-36.729 24.603-14.681 16.952-29.688 48.336-17.81 101.579a12 12 0 0 0 11.694 9.388l402.333 0.584h0.018c6.62 0 11.99-5.361 12-11.982 0.01-6.628-5.355-12.008-11.982-12.018l-392.472-0.569c-4.993-29.889-0.426-53.537 13.617-70.394 9.45-11.342 20.675-16.219 24.455-17.619l423.78-0.032c-17.882 16.371-26.494 34.131-30.612 48.167-6.776 23.102-3.119 41.511-2.961 42.283 1.337 6.492 7.687 10.666 14.174 9.334 6.472-1.333 10.645-7.644 9.346-14.114-0.466-2.43-9.792-55.592 54.738-86.875a12.002 12.002 0 0 0-5.235-22.799zM197.701 135.736c-6.627 0-12 5.373-12 12V665.771c0 6.627 5.373 12 12 12h67.746c6.627 0 12-5.373 12-12s-5.373-12-12-12h-55.746v-506.035c0-6.627-5.372-12-12-12zM682.711 18.986c-19.14 0-33.176 3.761-34.28 4.065-6.389 1.764-10.138 8.373-8.374 14.761 1.761 6.381 8.357 10.126 14.735 8.381 0.531-0.143 43.255-11.341 76.485 9.302 19.305 11.993 32.09 32.753 38.011 61.715l-0.074 536.562H349.447c-6.627 0-12 5.373-12 12s5.373 12 12 12h431.765c6.627 0 11.999-5.371 12-11.998l0.076-549.752c0-0.779-0.075-1.556-0.226-2.32-7.175-36.441-23.767-62.925-49.314-78.713-20.505-12.672-43.03-16.003-61.037-16.003zM797.457 32.399a11.986 11.986 0 0 0-9.995 5.345c-3.677 5.514-2.187 12.965 3.328 16.641 15.633 10.422 24.494 43.802 26.656 56.028V698.4H341.447c-6.627 0-12 5.372-12 12s5.373 12 12 12h487.999c6.627 0 12-5.372 12-12v-601c0-0.647-0.053-1.294-0.157-1.934-0.904-5.543-9.637-54.685-37.187-73.051a11.948 11.948 0 0 0-6.645-2.016zM859.457 52.398a11.996 11.996 0 0 0-10.43 6.048c-3.194 5.591-1.397 12.67 3.984 16.083 0.72 0.925 4.844 7.13 7.554 30.666 1.572 13.656 1.856 26.089 1.881 27.309l-0.98 611.896H369.447c-6.627 0-12 5.373-12 12s5.373 12 12 12h503.999c6.62 0 11.989-5.36 12-11.98l1-624c0-0.073 0-0.146-0.002-0.22-0.011-0.639-0.284-15.836-2.341-32.288-3.281-26.248-9.049-40.414-18.703-45.931a11.947 11.947 0 0 0-5.943-1.583zM341.206 630.09c-6.627 0-12 5.373-12 12v69.656c0 25.289-19.581 46.654-42.759 46.654-23.577 0-42.759-20.48-42.759-45.654v-45.932c0-6.627-5.373-12-12-12s-12 5.373-12 12v45.932c0 38.407 29.948 69.654 66.759 69.654 17.946 0 34.822-7.538 47.518-21.226 12.408-13.377 19.241-30.931 19.241-49.429v-69.656c0-6.626-5.373-11.999-12-11.999zM309.807 568.4c-23.775 0-42.398 21.266-42.398 48.414l0.721 95.78c0.049 6.596 5.413 11.909 11.998 11.909h0.092c6.627-0.05 11.959-5.463 11.909-12.091l-0.721-95.689c0-13.6 8.082-24.323 18.399-24.323 10.697 0 19.399 10.952 19.399 24.414v36.414c0 6.627 5.373 12 12 12s12-5.373 12-12v-36.414c0-26.695-19.469-48.414-43.399-48.414zM679.448 466.4a4 4 0 0 0-4-4h-384a4 4 0 0 0-4 4v76a4 4 0 0 0 4 4h384a4 4 0 0 0 4-4v-76zM675.448 452.4h-384c-7.72 0-14 6.28-14 14v76c0 7.72 6.28 14 14 14h384c7.72 0 14-6.28 14-14v-76c0-7.719-6.28-14-14-14z m-378 20h372v64h-372v-64zM619.446 341.4a4 4 0 0 0-4-4H291.448a4 4 0 0 0-4 4v76a4 4 0 0 0 4 4h323.998a4 4 0 0 0 4-4v-76zM615.446 327.4H291.448c-7.72 0-14 6.28-14 14v76c0 7.72 6.28 14 14 14h323.998c7.72 0 14-6.28 14-14v-76c0-7.719-6.28-14-14-14z m-317.998 20h311.998v64H297.448v-64zM679.448 215.4a4 4 0 0 0-4-4H291.447a4 4 0 0 0-4 4v76a4 4 0 0 0 4 4h384.001a4 4 0 0 0 4-4v-76zM675.448 201.4H291.447c-7.72 0-14 6.28-14 14v76c0 7.72 6.28 14 14 14h384.001c7.72 0 14-6.28 14-14v-76c0-7.719-6.28-14-14-14z m-378.001 20h372.001v64H297.447v-64z"  horiz-adv-x="1024" />

    
    <glyph glyph-name="xinxiheyan" unicode="&#58932;" d="M320.6 41.1l-40.7 42.6 14.5 13.8 26.8-28.1 65.7 63.3 13.9-14.5zM481.5 155.1h-77.8v20h57.5c-1.7 35.9-12.9 60.9-34.2 76.3-20 14.5-49.1 21.3-91.5 21.3-89.5 0-123.7-25.8-126.4-97.6h62v-20H189v10c0 48 11.7 79.9 36.9 100.2 23 18.7 57.9 27.4 109.8 27.4 46.9 0 79.7-8 103.3-25.1 28.7-20.8 42.6-54.3 42.6-102.5v-10zM335.2 272.7c-43.3 0-78.5 35.2-78.5 78.5v51c0 43.3 35.2 78.5 78.5 78.5s78.5-35.2 78.5-78.5v-51c0-43.3-35.2-78.5-78.5-78.5z m0 188c-32.2 0-58.5-26.2-58.5-58.5v-51c0-32.2 26.2-58.5 58.5-58.5s58.5 26.2 58.5 58.5v51c0 32.3-26.2 58.5-58.5 58.5zM279.8 381.9c-9.3 0-15.2 1.6-15.9 1.8l2.8 9.6 2.7 9.6c1.4-0.4 35.6-9.1 69.2 29.5l7.9 9.1 7.5-9.5c22.5-28.5 47-25.2 48-25h-0.1l3.5-19.7c-1.4-0.2-31.2-5.1-59.5 23.7-25.1-24.4-50.4-29.1-66.1-29.1zM970.2 29.2H431.3v20h518.9V610.5H74.4v-561.3h163.3v-20H54.4V630.5h915.8zM540.9 96.1h-99.8v20h79.8V543.7H149.5v-427.6h82.2v-20H129.5V563.7h411.4zM624 315.4c-22.3 0-40.5 18.1-40.5 40.5s18.1 40.5 40.5 40.5 40.5-18.1 40.5-40.5-18.2-40.5-40.5-40.5z m0 60.9c-11.3 0-20.5-9.2-20.5-20.5s9.2-20.5 20.5-20.5 20.5 9.2 20.5 20.5-9.2 20.5-20.5 20.5zM743.8 315.4c-22.3 0-40.5 18.1-40.5 40.5s18.1 40.5 40.5 40.5 40.5-18.1 40.5-40.5-18.2-40.5-40.5-40.5z m0 60.9c-11.3 0-20.5-9.2-20.5-20.5s9.2-20.5 20.5-20.5 20.5 9.2 20.5 20.5-9.2 20.5-20.5 20.5zM863.5 315.4c-22.3 0-40.5 18.1-40.5 40.5s18.1 40.5 40.5 40.5 40.5-18.1 40.5-40.5-18.2-40.5-40.5-40.5z m0 60.9c-11.3 0-20.5-9.2-20.5-20.5s9.2-20.5 20.5-20.5 20.5 9.2 20.5 20.5-9.2 20.5-20.5 20.5zM579.3 531.1h234.6v-20H579.3zM579.3 469.4h306.4v-20H579.3zM674.7 258.9h210.8v-20H674.7zM674.7 197.2h166.5v-20H674.7zM674.7 135.4h166.5v-20H674.7zM583.8 258.6H633v-20h-49.2zM583.8 196.8H633v-20h-49.2zM583.8 135.1H633v-20h-49.2zM336.4-31.3c-63.2 0-114.7 51.4-114.7 114.7S273.2 198 336.4 198s114.7-51.4 114.7-114.7-51.5-114.6-114.7-114.6z m0 209.3c-52.2 0-94.7-42.5-94.7-94.7s42.5-94.7 94.7-94.7 94.7 42.5 94.7 94.7-42.5 94.7-94.7 94.7zM895.5 620.5h-20v77.8H149.2v-77.8h-20v97.8h766.3zM819.6 708.3v60.2H211.7v-54.3h-20v74.3h647.9v-80.2z"  horiz-adv-x="1024" />

    
    <glyph glyph-name="shicizhijianjieguojichuli" unicode="&#58957;" d="M602.672-115.328H220.336C98.848-115.328 0-15.728 0 106.688V622.656C0 745.072 98.848 844.672 220.336 844.672H803.68c121.488 0 220.32-99.6 220.32-222.016v-311.984h-64V622.656c0 87.136-70.128 158.016-156.32 158.016H220.336C134.128 780.672 64 709.776 64 622.656v-515.968c0-87.12 70.128-158.016 156.336-158.016h382.336v-64zM473.328 198.672a29.984 29.984 0 0 0-30-30H262a29.984 29.984 0 1 0 0 59.984h181.344c16.56 0 29.984-13.424 29.984-29.984zM608 366.336A30.336 30.336 0 0 0 577.664 336H262.336a30.336 30.336 0 1 0 0 60.672h315.328c16.752 0 30.336-13.584 30.336-30.336z m154.672 164.992c0-16.576-13.44-30-30-30H262a29.984 29.984 0 1 0 0 60h470.672c16.56 0 30-13.424 30-30zM789.2-111.36a29.984 29.984 0 0 0-42.416 0.416L619.856 18.592a29.984 29.984 0 1 0 42.832 41.984L789.616-68.96a29.984 29.984 0 0 0-0.416-42.4zM920.768 59.472a30.016 30.016 0 0 0-0.336-42.432l-129.264-127.184a29.984 29.984 0 1 0-42.08 42.752l129.28 127.184a29.968 29.968 0 0 0 42.4-0.32zM1015.392 153.056a30.016 30.016 0 0 0-0.336-42.432L885.792-16.56a29.984 29.984 0 1 0-42.08 42.752l129.28 127.184a29.968 29.968 0 0 0 42.4-0.32zM424 777.328a39.344 39.344 0 0 0-78.656 0V848A39.328 39.328 0 0 0 424 848v-70.672z m241.344 0.016a39.344 39.344 0 0 0-78.672 0V848a39.36 39.36 0 0 0 78.672 0v-70.656z"  horiz-adv-x="1024" />

    
    <glyph glyph-name="lousaojieguobaobiao" unicode="&#58956;" d="M500.92 587.08L386 491.29l-98 98-150.63-150.66 45.25-45.26L288 498.75l94-94 164.36 136.89L608 480V640H448zM640 832H128a64.19 64.19 0 0 1-64-64v-768a64.19 64.19 0 0 1 64-64h444a289.06 289.06 0 0 0-82.6 64H128.11l-0.11 0.11V767.89l0.11 0.11h511.78l0.11-0.11v-295a288.9 288.9 0 0 0 64 7.11V768a64.19 64.19 0 0 1-64 64zM446 320H160v-64h263.15A285.9 285.9 0 0 0 446 320zM160 128h263.15a288.91 288.91 0 0 0-7.15 64H160zM704 448c-141.38 0-256-114.62-256-256s114.62-256 256-256 256 114.62 256 256-114.62 256-256 256z m-160-96h128v-64h-63.89l-0.11-0.11V256h-64z m128-320H544v96h64v-31.89l0.11-0.11H672z m192 0H736v64h63.89l0.11 0.11V128h64z m0 128H544v64h320z m0 96h-64v31.89l-0.11 0.11H736v64h128z"  horiz-adv-x="1024" />

    
    <glyph glyph-name="peizhihechajieguobaobiao" unicode="&#58958;" d="M500.92 587.08L386 491.29l-98 98-150.63-150.66 45.25-45.26L288 498.75l94-94 164.36 136.89L608 480V640H448zM640 832H128a64.19 64.19 0 0 1-64-64v-768a64.19 64.19 0 0 1 64-64h444a289.06 289.06 0 0 0-82.6 64H128.11l-0.11 0.11V767.89l0.11 0.11h511.78l0.11-0.11v-295a288.9 288.9 0 0 0 64 7.11V768a64.19 64.19 0 0 1-64 64zM446 320H160v-64h263.15A285.9 285.9 0 0 0 446 320zM160 128h263.15a288.91 288.91 0 0 0-7.15 64H160zM704 448c-141.38 0-256-114.62-256-256s114.62-256 256-256 256 114.62 256 256-114.62 256-256 256z m160-197.55l-0.28-0.28-57.81-57.91-135.8-136L512 214.63l45.18 45.25 112.94-113.14 129.71 129.95 0.17 0.17 50.82 50.91 12.9-12.92 0.28-0.28 32-32.06z"  horiz-adv-x="1024" />

    
    <glyph glyph-name="saoma1" unicode="&#58916;" d="M386.9-31H236.7c-76.5 0-138.8 62.3-138.8 138.8V257.9c0 13.8 11.2 25 25 25s25-11.2 25-25v-150.1c0-48.9 39.8-88.8 88.8-88.8h150.1c13.8 0 25-11.2 25-25s-11.1-25-24.9-25zM122.9 484.1c-13.8 0-25 11.2-25 25V659.3c0 76.5 62.3 138.8 138.8 138.8h150.1c13.8 0 25-11.2 25-25s-11.2-25-25-25H236.7c-48.9 0-88.8-39.8-88.8-88.8v-150.1c0-13.9-11.1-25.1-25-25.1zM902 484.1c-13.8 0-25 11.2-25 25V659.3c0 48.9-39.8 88.8-88.8 88.8H638.1c-13.8 0-25 11.2-25 25s11.2 25 25 25h150.1c76.5 0 138.8-62.3 138.8-138.8v-150.1c0-13.9-11.2-25.1-25-25.1zM788.2-31H638.1c-13.8 0-25 11.2-25 25s11.2 25 25 25h150.1c48.9 0 88.8 39.8 88.8 88.8V257.9c0 13.8 11.2 25 25 25s25-11.2 25-25v-150.1c0-76.5-62.3-138.8-138.8-138.8zM752 359.9H272.9c-13.8 0-25 11.2-25 25s11.2 25 25 25H752c13.8 0 25-11.2 25-25s-11.2-25-25-25z"  horiz-adv-x="1024" />

    
    <glyph glyph-name="ziyuan" unicode="&#58894;" d="M1828.08381-30.476189999999974C1809.554286 469.820952 1414.095238 871.619048 926.47619 871.619048S43.885714 469.820952 25.35619-30.476189999999974v-72.655239h1804.190477V-30.476189999999974zM926.47619 798.47619c447.146667 0 813.348571-369.127619 831.390477-828.95238H97.52381C113.615238 429.83619 479.329524 798.47619 926.47619 798.47619zM1852.952381-128H0v97.52381C20.48 489.325714 426.666667 896 926.47619 896s906.971429-406.674286 926.476191-926.47619zM48.761905-79.23809500000004h1755.428571v48.761905C1785.173333 461.04381 1400.441905 847.238095 926.47619 847.238095S68.266667 461.04381 48.761905-30.476189999999974z m1734.460952 23.893333H69.729524v25.356191C90.209524 448.365714 466.16381 823.344762 926.47619 823.344762S1763.718095 448.365714 1782.735238-30.476189999999974z m-1662.780952 48.761905h1609.142857c-29.744762 438.857143-379.367619 780.190476-805.546667 780.190476S151.161905 433.737143 120.929524-6.58285699999999zM1486.262857-45.592381000000046H1414.095238a481.767619 481.767619 0 1 1-963.535238 0H379.367619a553.447619 553.447619 0 1 0 1106.895238 0zM1511.619048-69.97333300000003h-121.417143v24.380952a457.386667 457.386667 0 1 1-914.773334 0v-24.380952H354.986667v24.380952a577.828571 577.828571 0 1 0 1155.657143 0z m-72.167619 48.761904H1462.857143a528.579048 528.579048 0 0 1-1057.158095 0h22.918095a506.148571 506.148571 0 0 0 1011.321905 0zM894.293333 830.171429h97.52381v-157.500953h-97.52381zM463.969524 689.590857l84.455619 48.761905 78.750476-136.43581-84.455619-48.761904zM161.645714 352.59733300000005l48.761905 84.455619 136.387048-78.750476-48.761905-84.455619zM1538.048 355.23047599999995l136.387048 78.701714 48.761904-84.50438-136.387047-78.701715zM1450.666667 525.06819l78.019047 76.409905 68.266667-69.632-78.019048-76.458666zM1097.97181 703.536762l29.354666 105.179428 93.964191-26.185142-29.354667-105.228191zM676.230095 787.748571l94.45181 24.283429 27.209143-105.813333-94.45181-24.234667zM295.936 543.597714l69.632 68.266667 76.458667-78.019048-69.632-68.266666zM89.234286 141.84838100000002l26.185143 93.915429 105.22819-29.354667-26.233905-93.915429zM1666.82819 194.31619l105.764572 27.209143 24.283428-94.451809-105.813333-27.209143zM1258.691048 600.112762l78.701714 136.435809 84.504381-48.761904-78.750476-136.43581z"  horiz-adv-x="1853" />

    
    <glyph glyph-name="jianchajieguo" unicode="&#59330;" d="M536.545997 828.814966c-6.281041 6.285134-14.956614 10.178806-24.54395 10.178806-9.589383 0-18.265979-3.897766-24.545997-10.182899-6.273878-6.243179-10.160387-14.922844-10.160387-24.521438s3.886509-18.278259 10.160387-24.563393a34.792341 34.792341 0 0 1 22.758284-10.104105h3.572355a34.761642 34.761642 0 0 1 22.759308 10.104105c6.273878 6.285134 10.160387 14.960707 10.160387 24.563393s-3.886509 18.278259-10.160387 24.521438v0.004093z m-24.544974 48.738953c22.360219 0 42.604245-1.347692 57.260007-16.004477 14.648599-14.648599 23.71712-34.896718 23.717121-57.26103h92.544558V688.606947H338.477291V804.289435h92.545581c0 22.364312 9.067498 42.608338 23.727354 57.261031 14.644506 14.655762 34.888532 16.003454 57.250797 16.003453zM207.161786 769.621937h100.468002v-46.268697h-100.468002c-8.465795 0-16.170252-3.475141-21.772842-9.063405-5.59645-5.629196-9.075685-13.303977-9.075685-21.788192V-32.433625c0-16.886565 13.932286-30.848527 30.848527-30.848527h609.677451c16.907031 0 30.848527 13.960939 30.848527 30.848527V692.505736c0 8.442259-3.479234 16.150809-9.082847 21.785122-5.595427 5.591334-13.308071 9.060335-21.76568 9.060335l-100.468001 0.004093V769.621937h100.468001c21.230491 0 40.518751-8.676596 54.481737-22.635488 13.970148-13.955822 22.638558-33.239989 22.638558-54.485829V-32.433625c0-42.412887-34.674661-77.121318-77.120295-77.121318l-609.677451 0.004094c-42.454843 0-77.121318 34.662382-77.121318 77.117224V692.505736c0 21.245841 8.669433 40.522844 22.632418 54.481737 13.970148 13.958892 33.257385 22.634465 54.4889 22.634464zM288.356877 98.675173h447.288292v-30.848527H288.356877v30.848527z m-0.008186 285.306408h70.591614l45.654714 113.519222c3.163033 7.908094 12.117968 11.722972 20.002527 8.55994a15.329096 15.329096 0 0 0 8.654083-8.78916h0.021489l68.569565-179.07311 61.529232 236.337211c2.131543 8.213039 10.52059 13.146388 18.737722 11.026102 4.805436-1.235128 8.481145-4.627381 10.2883-8.867954h0.01535l72.391606-168.856441h70.840276v-30.848527h-80.969964v0.036839c-5.987353 0-11.67283 3.509933-14.158436 9.369372l-58.70696 136.930376-62.051117-238.34391c-0.962929-5.088892-4.465699-9.561754-9.656921-11.530592-7.95005-3.04433-16.855866 0.962929-19.8828 8.907863L418.512979 449.644961l-34.48535-85.754934c-1.973954-6.247272-7.810881-10.763113-14.701811-10.763113l-80.977127 0.004093v30.850574z m0.008186-204.333374h447.288292v-30.844434H288.356877v30.844434z"  horiz-adv-x="1024" />

    
    <glyph glyph-name="dots-vertical-rounde" unicode="&#59255;" d="M512 469.333333c-46.933333 0-85.333333-38.4-85.333333-85.333333s38.4-85.333333 85.333333-85.333333 85.333333 38.4 85.333333 85.333333-38.4 85.333333-85.333333 85.333333z m0 256c-46.933333 0-85.333333-38.4-85.333333-85.333333s38.4-85.333333 85.333333-85.333333 85.333333 38.4 85.333333 85.333333-38.4 85.333333-85.333333 85.333333z m0-512c-46.933333 0-85.333333-38.4-85.333333-85.333333s38.4-85.333333 85.333333-85.333333 85.333333 38.4 85.333333 85.333333-38.4 85.333333-85.333333 85.333333z"  horiz-adv-x="1024" />

    
    <glyph glyph-name="bianji3" unicode="&#58913;" d="M319.73888 403.9168l267.93472 231.63392 162.18112 140.20608 37.76512 32.64512c16.16384 13.97248 29.96224-7.79776 39.59808-18.94912l133.00736-153.8304c18.14016-20.97664-53.76512-68.21888-65.67936-78.5152L547.328 256.86528l-60.2624-52.11136c-25.01632-21.632 11.36128-57.68704 36.20352-36.1984l267.904 231.6544 162.16576 140.22656 37.76 32.65024c29.1584 25.216 31.91296 67.9936 6.76352 97.08032l-127.65184 147.6352c-20.88448 24.15104-38.62016 46.67392-74.31168 46.53568-22.528-0.09216-38.78912-14.80704-54.6304-28.50304l-321.83296-278.2208-135.90016-117.49376c-25.02144-21.62688 11.36128-57.68192 36.20352-36.20352zM490.32192 201.35424l-286.63808-48.65024 31.488-31.488 91.01824 296.93952c9.7024 31.65184-39.72608 45.0816-49.37216 13.60896-30.34112-98.95936-60.68224-197.94944-91.01824-296.93952-6.20544-20.23936 13.30176-34.58048 31.488-31.488l286.66368 48.65024c32.52224 5.51424 18.69824 54.84544-13.62944 49.36704zM525.53728 206.23872C457.61024 284.75392 389.7344 363.264 321.86368 441.7536c-21.632 25.02144-57.68192-11.36128-36.20352-36.20352 67.87584-78.48448 135.75168-156.99968 203.63264-235.50976 21.66272-25.02144 57.72288 11.35616 36.24448 36.1984zM941.58848 295.20384v-188.9024c0-23.52128 2.5088-48.83456-0.896-72.24832-6.8352-47.02208-48.72192-80.98816-95.5136-80.98816H255.24224c-44.40576 0-94.04928-7.02464-132.59776 19.0208-46.50496 31.41632-37.82144 93.40928-37.82144 141.73696v221.76256V573.7984c0 38.78912-4.71552 80.93184 0.896 119.53152 6.9888 48.05632 49.59744 80.98816 96.95744 80.98816H485.1712c33.01888 0 33.01888 51.2 0 51.2H307.23072c-61.60384 0-135.75168 10.49088-193.29536-15.76448-49.13664-22.4256-80.31232-77.70112-80.31232-130.61632V52.5312c0-83.16928 64.86528-150.66624 148.81792-150.66624h595.3536c48.30208 0 96.21504-4.44416 140.5952 18.87232 79.52384 41.7792 74.39872 127.88736 74.39872 203.83744v170.63424c0 33.00864-51.2 33.00864-51.2-0.00512zM741.71904 677.2224l128.34304-141.84448M723.61984 659.11808l128.33792-141.84448c22.1952-24.52992 58.2912 11.79136 36.1984 36.20352l-128.33792 141.84448c-22.1952 24.52992-58.28608-11.79136-36.1984-36.20352z"  horiz-adv-x="1024" />

    
    </font>
</defs>
</svg>
